<svg width="96" height="42" viewBox="0 0 96 42" fill="none" xmlns="http://www.w3.org/2000/svg">
<path d="M39.645 41.1642C38.4888 41.1642 37.6017 40.8172 36.9856 40.1237C36.3685 39.4302 36.0608 38.4671 36.0608 37.2329V22.6334C36.0608 21.3615 36.3691 20.3883 36.9856 19.7136C37.6017 19.04 38.4888 18.7021 39.645 18.7021C40.8018 18.7021 41.6976 19.04 42.3335 19.7136C42.9694 20.3883 43.2874 21.3615 43.2874 22.6334V37.2329C43.2874 38.4671 42.9786 39.4302 42.3625 40.1237C41.7454 40.8177 40.8394 41.1642 39.645 41.1642Z" fill="white"/>
<path d="M63.7535 41.338C61.2474 41.338 59.1573 40.9135 57.4803 40.0661C55.8033 39.2188 54.5605 37.9759 53.7513 36.3372C52.9416 34.6994 52.537 32.6657 52.537 30.2377V17.9226H49.5311C48.6063 17.9226 47.8923 17.6821 47.392 17.2C46.8916 16.7185 46.6404 16.0535 46.6404 15.2051C46.6404 14.319 46.8911 13.6438 47.392 13.1816C47.8923 12.7194 48.6063 12.4876 49.5311 12.4876H52.5375V7.22633C52.5375 6.03194 52.8555 5.12593 53.4914 4.50883C54.1274 3.8928 55.0237 3.58398 56.1799 3.58398C57.3361 3.58398 58.2222 3.8928 58.8393 4.50883C59.4553 5.12593 59.7641 6.03194 59.7641 7.22633V12.4876H65.8926C66.8175 12.4876 67.5304 12.7189 68.0318 13.1816C68.5321 13.6438 68.7834 14.319 68.7834 15.2051C68.7834 16.0535 68.5321 16.718 68.0318 17.2C67.5304 17.6826 66.8175 17.9226 65.8926 17.9226H59.7641V29.8326C59.7641 31.6828 60.1687 33.0703 60.9784 33.9952C61.7881 34.92 63.0977 35.3827 64.9097 35.3827C65.565 35.3827 66.1428 35.3246 66.6442 35.2089C67.1446 35.0933 67.5885 35.0163 67.9737 34.9776C68.4364 34.9399 68.8211 35.0841 69.1299 35.4112C69.4382 35.7394 69.5926 36.4039 69.5926 37.4062C69.5926 38.1777 69.4672 38.8615 69.2165 39.4587C68.9652 40.057 68.5128 40.4707 67.858 40.7021C67.3566 40.8559 66.7018 41.0001 65.8921 41.1357C65.0835 41.2702 64.3695 41.338 63.7535 41.338Z" fill="white"/>
<path d="M83.352 41.3379C81.6944 41.3379 79.941 41.1641 78.0908 40.8176C76.2406 40.4706 74.583 39.8734 73.1185 39.0255C72.5014 38.6408 72.0677 38.1873 71.8176 37.667C71.5663 37.1467 71.4705 36.6265 71.5287 36.1062C71.5862 35.586 71.7788 35.1335 72.1065 34.7477C72.4336 34.3631 72.8581 34.1118 73.3783 33.9961C73.8986 33.8805 74.4667 33.9773 75.0838 34.285C76.6247 35.0178 78.0704 35.5284 79.4197 35.8173C80.7685 36.1068 82.0985 36.2509 83.4091 36.2509C85.2593 36.2509 86.6371 35.933 87.5432 35.2971C88.4486 34.6611 88.9016 33.8229 88.9016 32.7818C88.9016 31.8957 88.6025 31.2119 88.0058 30.7293C87.4076 30.2478 86.5118 29.8911 85.3174 29.6597L79.5359 28.5611C77.146 28.0984 75.3243 27.222 74.0724 25.9302C72.8193 24.6395 72.1936 22.9728 72.1936 20.9294C72.1936 19.0792 72.7042 17.4802 73.7259 16.1309C74.747 14.7821 76.1631 13.7416 77.9751 13.0088C79.7861 12.2771 81.8677 11.9102 84.2193 11.9102C85.9151 11.9102 87.505 12.0936 88.9893 12.4595C90.4726 12.8264 91.9091 13.3945 93.2961 14.165C93.8745 14.4738 94.2694 14.8784 94.4814 15.3793C94.6928 15.8807 94.7418 16.3913 94.6261 16.9115C94.5104 17.4318 94.2791 17.8945 93.9321 18.2991C93.585 18.7036 93.1514 18.9549 92.6311 19.0507C92.1109 19.1475 91.5228 19.0415 90.8681 18.7327C89.6731 18.1161 88.5266 17.6728 87.428 17.4027C86.3294 17.1337 85.2787 16.9981 84.2769 16.9981C82.3879 16.9981 80.9907 17.3258 80.0852 17.9811C79.1792 18.6369 78.7267 19.5042 78.7267 20.5824C78.7267 21.3921 78.9957 22.0668 79.5359 22.6064C80.0755 23.1466 80.9035 23.5124 82.0221 23.705L87.8036 24.8036C90.3085 25.2658 92.2067 26.1142 93.4984 27.3474C94.7891 28.5816 95.4353 30.2381 95.4353 32.3197C95.4353 35.134 94.3366 37.3404 92.1394 38.9399C89.9432 40.5384 87.0137 41.3379 83.352 41.3379Z" fill="white"/>
<circle cx="39.6743" cy="11.9104" r="4.24923" fill="#F6B707"/>
<path fill-rule="evenodd" clip-rule="evenodd" d="M1.8357 0H17.0496C23.8044 0 29.2808 5.4759 29.2803 12.2312C29.2803 18.9865 23.8044 24.4624 17.0491 24.4624H1.8357C0.822084 24.4624 0 23.6403 0 22.6267V1.8357C0 0.822084 0.822084 0 1.8357 0ZM17.0491 17.5376C19.9797 17.5376 22.3555 15.1617 22.3555 12.2312C22.3555 9.3001 19.9802 6.92477 17.0491 6.92477H6.92477V17.5376H17.0491Z" fill="white"/>
<path d="M17.0496 17.5381H2.0444C0.915649 17.5381 0.000488281 18.4532 0.000488281 19.582V22.4189C0.000488281 23.5477 0.915649 24.4629 2.0444 24.4629H17.0496C19.9801 24.4629 22.356 26.8387 22.356 29.7693C22.356 32.6998 19.9801 35.0757 17.0496 35.0757H2.0444C0.915649 35.0757 0.000488281 35.9909 0.000488281 37.1196V39.9566C0.000488281 41.0853 0.915649 42.0005 2.0444 42.0005H17.0496C23.8049 42.0005 29.2808 36.5246 29.2808 29.7693C29.2808 23.014 23.8043 17.5381 17.0496 17.5381Z" fill="white"/>
</svg>
