<svg width="113" height="125" viewBox="0 0 113 125" fill="none" xmlns="http://www.w3.org/2000/svg">
<path d="M93.5509 49.6156L84.8476 40.8088L44.1705 81.6796L28.1836 65.6786L19.4803 74.4234L44.1705 99.2311L93.5509 49.6156ZM99.7235 12.4039H73.9222C71.3297 5.20963 64.5399 0 56.5156 0C48.4913 0 41.7015 5.20963 39.109 12.4039H13.3078C12.4436 12.4039 11.6412 12.4659 10.8387 12.652C8.43144 13.1481 6.27104 14.3885 4.60445 16.063C3.49339 17.1794 2.56751 18.5438 1.95026 20.0323C1.333 21.4587 0.962646 23.0712 0.962646 24.8078V111.635C0.962646 113.31 1.333 114.984 1.95026 116.473C2.56751 117.961 3.49339 119.263 4.60445 120.442C6.27104 122.116 8.43144 123.357 10.8387 123.853C11.6412 123.977 12.4436 124.039 13.3078 124.039H99.7235C106.513 124.039 112.069 118.457 112.069 111.635V24.8078C112.069 17.9856 106.513 12.4039 99.7235 12.4039ZM56.5156 10.8534C59.0464 10.8534 61.145 12.9621 61.145 15.5049C61.145 18.0477 59.0464 20.1563 56.5156 20.1563C53.9849 20.1563 51.8862 18.0477 51.8862 15.5049C51.8862 12.9621 53.9849 10.8534 56.5156 10.8534ZM99.7235 111.635H13.3078V24.8078H99.7235V111.635Z" fill="#42DBBE"/>
</svg>
