<svg width="12" height="51" viewBox="0 0 12 51" fill="none" xmlns="http://www.w3.org/2000/svg">
<path d="M10.7666 0L9.63867 34.5557H1.43555L0.273438 0H10.7666ZM0 45.2539C0 43.7956 0.501302 42.5879 1.50391 41.6309C2.5293 40.651 3.8737 40.1611 5.53711 40.1611C7.22331 40.1611 8.56771 40.651 9.57031 41.6309C10.5729 42.5879 11.0742 43.7956 11.0742 45.2539C11.0742 46.6667 10.5729 47.863 9.57031 48.8428C8.56771 49.8226 7.22331 50.3125 5.53711 50.3125C3.8737 50.3125 2.5293 49.8226 1.50391 48.8428C0.501302 47.863 0 46.6667 0 45.2539Z" fill="#093C5D"/>
</svg>
