<svg width="42" height="42" viewBox="0 0 42 42" fill="none" xmlns="http://www.w3.org/2000/svg">
<rect x="1" y="1" width="40" height="40" rx="4" fill="white" stroke="#2186C6" stroke-width="0.8"/>
<path fill-rule="evenodd" clip-rule="evenodd" d="M24 18H25.59C26.48 18 26.92 19.08 26.29 19.71L21.7 24.3C21.31 24.69 20.68 24.69 20.29 24.3L15.7 19.71C15.07 19.08 15.52 18 16.41 18H18V13C18 12.45 18.45 12 19 12H23C23.55 12 24 12.45 24 13V18ZM15 29C14.45 29 14 28.55 14 28C14 27.45 14.45 27 15 27H27C27.55 27 28 27.45 28 28C28 28.55 27.55 29 27 29H15Z" fill="#2186C6"/>
</svg>
