<svg width="10" height="7" viewBox="0 0 10 7" fill="none" xmlns="http://www.w3.org/2000/svg">
<path fill-rule="evenodd" clip-rule="evenodd" d="M4.99996 0.666664C2.91663 0.666664 1.13746 1.9625 0.416626 3.79166C1.13746 5.62083 2.91663 6.91666 4.99996 6.91666C7.08329 6.91666 8.86246 5.62083 9.58329 3.79166C8.86246 1.9625 7.08329 0.666664 4.99996 0.666664ZM4.99996 5.875C3.84996 5.875 2.91663 4.94166 2.91663 3.79166C2.91663 2.64166 3.84996 1.70833 4.99996 1.70833C6.14996 1.70833 7.08329 2.64166 7.08329 3.79166C7.08329 4.94166 6.14996 5.875 4.99996 5.875ZM3.74996 3.79166C3.74996 3.1 4.30829 2.54166 4.99996 2.54166C5.69163 2.54166 6.24996 3.1 6.24996 3.79166C6.24996 4.48333 5.69163 5.04166 4.99996 5.04166C4.30829 5.04166 3.74996 4.48333 3.74996 3.79166Z" fill="#2186C6"/>
</svg>
