<svg width="15" height="17" viewBox="0 0 15 17" fill="none" xmlns="http://www.w3.org/2000/svg">
<path fill-rule="evenodd" clip-rule="evenodd" d="M9.14664 6.65951C10.1219 6.14573 10.7868 5.12211 10.7868 3.9432C10.7868 2.24868 9.41311 0.875 7.71859 0.875C6.02407 0.875 4.65039 2.24868 4.65039 3.9432C4.65039 5.12191 5.31506 6.14538 6.29004 6.65924V9.14025H9.14664V6.65951Z" fill="#093C5D"/>
<path fill-rule="evenodd" clip-rule="evenodd" d="M2.86621 9.8125C1.76164 9.8125 0.866211 10.7079 0.866211 11.8125V13.999H14.7056V11.8125C14.7056 10.7079 13.8102 9.8125 12.7056 9.8125H2.86621ZM14.5406 15.2969H1.03127C1.33917 16.0049 2.04487 16.5 2.86621 16.5H12.7056C13.527 16.5 14.2327 16.0049 14.5406 15.2969Z" fill="#093C5D"/>
</svg>
