<svg width="16" height="10" viewBox="0 0 16 10" fill="none" xmlns="http://www.w3.org/2000/svg">
<path fill-rule="evenodd" clip-rule="evenodd" d="M7.83333 0C4.5 0 1.65333 2.07333 0.5 5C1.65333 7.92667 4.5 10 7.83333 10C11.1667 10 14.0133 7.92667 15.1667 5C14.0133 2.07333 11.1667 0 7.83333 0ZM7.83333 8.33333C5.99333 8.33333 4.5 6.84 4.5 5C4.5 3.16 5.99333 1.66667 7.83333 1.66667C9.67333 1.66667 11.1667 3.16 11.1667 5C11.1667 6.84 9.67333 8.33333 7.83333 8.33333ZM5.83333 5C5.83333 3.89333 6.72667 3 7.83333 3C8.94 3 9.83333 3.89333 9.83333 5C9.83333 6.10667 8.94 7 7.83333 7C6.72667 7 5.83333 6.10667 5.83333 5Z" fill="#093C5D"/>
</svg>
