<svg width="21" height="19" viewBox="0 0 21 19" fill="none" xmlns="http://www.w3.org/2000/svg">
<path opacity="0.8" fill-rule="evenodd" clip-rule="evenodd" d="M3.05789 18.3429H18.7297C20.3322 18.3429 21.3312 16.6051 20.53 15.2211L12.6941 1.68255C11.8928 0.298524 9.89479 0.298524 9.09351 1.68255L1.25761 15.2211C0.456335 16.6051 1.45533 18.3429 3.05789 18.3429ZM10.8938 11.0561C10.3214 11.0561 9.85314 10.5878 9.85314 10.0155V7.93422C9.85314 7.36188 10.3214 6.8936 10.8938 6.8936C11.4661 6.8936 11.9344 7.36188 11.9344 7.93422V10.0155C11.9344 10.5878 11.4661 11.0561 10.8938 11.0561ZM9.85314 15.2205H11.9344V13.1392H9.85314V15.2205Z" fill="#D31313"/>
</svg>
