<svg width="10" height="7" viewBox="0 0 10 7" fill="none" xmlns="http://www.w3.org/2000/svg">
<path fill-rule="evenodd" clip-rule="evenodd" d="M4.99996 0.667969C2.91663 0.667969 1.13746 1.9638 0.416626 3.79297C1.13746 5.62214 2.91663 6.91797 4.99996 6.91797C7.08329 6.91797 8.86246 5.62214 9.58329 3.79297C8.86246 1.9638 7.08329 0.667969 4.99996 0.667969ZM4.99996 5.8763C3.84996 5.8763 2.91663 4.94297 2.91663 3.79297C2.91663 2.64297 3.84996 1.70964 4.99996 1.70964C6.14996 1.70964 7.08329 2.64297 7.08329 3.79297C7.08329 4.94297 6.14996 5.8763 4.99996 5.8763ZM3.74996 3.79297C3.74996 3.1013 4.30829 2.54297 4.99996 2.54297C5.69163 2.54297 6.24996 3.1013 6.24996 3.79297C6.24996 4.48464 5.69163 5.04297 4.99996 5.04297C4.30829 5.04297 3.74996 4.48464 3.74996 3.79297Z" fill="#2186C6"/>
</svg>
