<svg width="14" height="14" viewBox="0 0 14 14" fill="none" xmlns="http://www.w3.org/2000/svg">
<path fill-rule="evenodd" clip-rule="evenodd" d="M6.99967 0.332031C3.31967 0.332031 0.333008 3.3187 0.333008 6.9987C0.333008 10.6787 3.31967 13.6654 6.99967 13.6654C10.6797 13.6654 13.6663 10.6787 13.6663 6.9987C13.6663 3.3187 10.6797 0.332031 6.99967 0.332031ZM3.66634 4.33203C3.66634 3.96536 3.96634 3.66536 4.33301 3.66536H7.66634C8.03301 3.66536 8.33301 3.96536 8.33301 4.33203C8.33301 4.6987 8.03301 4.9987 7.66634 4.9987H4.33301C3.96634 4.9987 3.66634 4.6987 3.66634 4.33203ZM4.99967 8.9987C5.36634 8.9987 5.66634 8.6987 5.66634 8.33203C5.66634 7.96536 5.36634 7.66536 4.99967 7.66536H4.33301C3.96634 7.66536 3.66634 7.96536 3.66634 8.33203C3.66634 8.6987 3.96634 8.9987 4.33301 8.9987H4.99967ZM4.33301 6.9987C3.96634 6.9987 3.66634 6.6987 3.66634 6.33203C3.66634 5.96536 3.96634 5.66536 4.33301 5.66536H7.66634C8.03301 5.66536 8.33301 5.96536 8.33301 6.33203C8.33301 6.6987 8.03301 6.9987 7.66634 6.9987H4.33301ZM10.333 8.9987H10.9997C11.3663 8.9987 11.6663 8.6987 11.6663 8.33203C11.6663 7.96536 11.3663 7.66536 10.9997 7.66536H10.333V6.9987C10.333 6.63203 10.033 6.33203 9.66634 6.33203C9.29967 6.33203 8.99967 6.63203 8.99967 6.9987V7.66536H8.33301C7.96634 7.66536 7.66634 7.96536 7.66634 8.33203C7.66634 8.6987 7.96634 8.9987 8.33301 8.9987H8.99967V9.66536C8.99967 10.032 9.29967 10.332 9.66634 10.332C10.033 10.332 10.333 10.032 10.333 9.66536V8.9987Z" fill="#093C5D"/>
</svg>
