<svg width="19" height="19" viewBox="0 0 19 19" fill="none" xmlns="http://www.w3.org/2000/svg">
<path fill-rule="evenodd" clip-rule="evenodd" d="M13.1291 12.1257H13.9685L18.4735 16.6519C18.9091 17.0875 18.9091 17.7994 18.4735 18.235C18.0379 18.6707 17.326 18.6707 16.8904 18.235L12.3748 13.7194V12.88L12.0879 12.5825C10.6004 13.8575 8.57101 14.5163 6.41414 14.155C3.46039 13.6557 1.10164 11.1907 0.740389 8.21566C0.187889 3.72129 3.97039 -0.0612103 8.46476 0.49129C11.4398 0.85254 13.9048 3.21129 14.4041 6.16504C14.7654 8.32191 14.1066 10.3513 12.8316 11.8388L13.1291 12.1257ZM2.81229 7.34375C2.81229 9.98938 4.94792 12.125 7.59354 12.125C10.2392 12.125 12.3748 9.98938 12.3748 7.34375C12.3748 4.69812 10.2392 2.5625 7.59354 2.5625C4.94792 2.5625 2.81229 4.69812 2.81229 7.34375Z" fill="#7F7F81"/>
</svg>
