<svg width="10" height="12" viewBox="0 0 10 12" fill="none" xmlns="http://www.w3.org/2000/svg">
<path fill-rule="evenodd" clip-rule="evenodd" d="M6.92241 4.5H7.98241C8.57574 4.5 8.86907 5.22 8.44907 5.64L5.38907 8.7C5.12907 8.96 4.70907 8.96 4.44907 8.7L1.38907 5.64C0.969073 5.22 1.26907 4.5 1.86241 4.5H2.92241V1.16667C2.92241 0.8 3.22241 0.5 3.58907 0.5H6.25574C6.62241 0.5 6.92241 0.8 6.92241 1.16667V4.5ZM0.922404 11.8333C0.555737 11.8333 0.255737 11.5333 0.255737 11.1667C0.255737 10.8 0.555737 10.5 0.922404 10.5H8.9224C9.28907 10.5 9.58907 10.8 9.58907 11.1667C9.58907 11.5333 9.28907 11.8333 8.9224 11.8333H0.922404Z" fill="#093C5D"/>
</svg>
