<svg width="26" height="17" viewBox="0 0 26 17" fill="none" xmlns="http://www.w3.org/2000/svg">
<rect y="12.6602" width="7.61507" height="1.81176" rx="0.905882" fill="#093C5D"/>
<rect x="0.849365" y="9.57422" width="6.76581" height="1.81176" rx="0.905882" fill="#093C5D"/>
<rect x="2.26465" y="6.32031" width="5.35037" height="1.81176" rx="0.905882" fill="#093C5D"/>
<rect x="4.01978" y="3.46094" width="3.59522" height="1.81176" rx="0.905882" fill="#093C5D"/>
<path d="M10.9117 1H18.2566C18.6213 1 18.9716 1.14228 19.2329 1.39658L23.6388 5.68334C23.9096 5.9469 24.0625 6.3088 24.0625 6.68675V14.2357C24.0625 15.0089 23.4357 15.6357 22.6625 15.6357H10.9117C10.1385 15.6357 9.51172 15.0089 9.51172 14.2357V2.4C9.51172 1.6268 10.1385 1 10.9117 1Z" stroke="#093C5D" stroke-width="2"/>
<path d="M16.9419 7.68787C15.5567 7.32784 15.1113 6.95561 15.1113 6.37591C15.1113 5.71078 15.7276 5.24702 16.7588 5.24702C17.6253 5.24702 18.0586 5.57653 18.2172 6.10131C18.2905 6.3454 18.4918 6.52846 18.7481 6.52846H18.9312C19.3339 6.52846 19.6207 6.13182 19.4804 5.75349C19.2241 5.03344 18.6261 4.43543 17.6741 4.20355V3.78251C17.6741 3.27603 17.2653 2.86719 16.7588 2.86719C16.2523 2.86719 15.8435 3.27603 15.8435 3.78251V4.18525C14.6597 4.44154 13.7078 5.2104 13.7078 6.38811C13.7078 7.7977 14.8733 8.49945 16.5758 8.90829C18.1013 9.27442 18.4064 9.81141 18.4064 10.3789C18.4064 10.7999 18.1074 11.4712 16.7588 11.4712C15.752 11.4712 15.2333 11.1112 15.0319 10.5986C14.9404 10.3606 14.7329 10.1897 14.4827 10.1897H14.3119C13.903 10.1897 13.6162 10.6047 13.7688 10.983C14.1166 11.8312 14.9282 12.3316 15.8435 12.5268V12.9357C15.8435 13.4422 16.2523 13.851 16.7588 13.851C17.2653 13.851 17.6741 13.4422 17.6741 12.9357V12.5391C18.8641 12.3133 19.8099 11.6237 19.8099 10.3728C19.8099 8.6398 18.3271 8.04789 16.9419 7.68787Z" fill="#093C5D"/>
</svg>
