<?xml version="1.0" encoding="UTF-8"?>
<svg width="24px" height="24px" viewBox="0 0 24 24" version="1.1" xmlns="http://www.w3.org/2000/svg" xmlns:xlink="http://www.w3.org/1999/xlink">
    <title>icono-my-mood-select</title>
    <g id="Admin-Bits" stroke="none" stroke-width="1" fill="none" fill-rule="evenodd">
        <g id="1-dashboard" transform="translate(-17.000000, -305.000000)">
            <g id="side-bar" transform="translate(0.000000, 72.000000)">
                <g id="Group-13" transform="translate(0.000000, 53.500000)">
                    <g id="msg-copy-3" transform="translate(0.000000, 167.500000)">
                        <g id="icono-my-mood-select" transform="translate(17.000000, 12.000000)">
                            <g id="Group">
                                <rect id="Rectangle" x="0" y="0" width="24" height="24"></rect>
                                <rect id="Rectangle" x="0" y="0" width="24" height="24"></rect>
                            </g>
                            <path d="M11.99,2 C6.47,2 2,6.48 2,12 C2,17.52 6.47,22 11.99,22 C17.52,22 22,17.52 22,12 C22,6.48 17.52,2 11.99,2 Z M8.5,8 C9.33,8 10,8.67 10,9.5 C10,10.33 9.33,11 8.5,11 C7.67,11 7,10.33 7,9.5 C7,8.67 7.67,8 8.5,8 Z M16.71,14.72 C15.8,16.67 14.04,18 12,18 C9.96,18 8.2,16.67 7.29,14.72 C7.13,14.39 7.37,14 7.74,14 L16.26,14 C16.63,14 16.87,14.39 16.71,14.72 Z M15.5,11 C14.67,11 14,10.33 14,9.5 C14,8.67 14.67,8 15.5,8 C16.33,8 17,8.67 17,9.5 C17,10.33 16.33,11 15.5,11 Z" id="Shape" fill="#093C5D" fill-rule="nonzero"></path>
                        </g>
                    </g>
                </g>
            </g>
        </g>
    </g>
</svg>