<?xml version="1.0" encoding="UTF-8"?>
<svg width="125px" height="125px" viewBox="0 0 125 125" version="1.1" xmlns="http://www.w3.org/2000/svg" xmlns:xlink="http://www.w3.org/1999/xlink">
    <title>icono-imagen-noticia-cargada</title>
    <defs>
        <rect id="path-1" x="35" y="35" width="51" height="51" rx="4"></rect>
        <filter x="-25.5%" y="-21.6%" width="151.0%" height="151.0%" filterUnits="objectBoundingBox" id="filter-2">
            <feOffset dx="0" dy="2" in="SourceAlpha" result="shadowOffsetOuter1"></feOffset>
            <feGaussianBlur stdDeviation="4" in="shadowOffsetOuter1" result="shadowBlurOuter1"></feGaussianBlur>
            <feColorMatrix values="0 0 0 0 0   0 0 0 0 0   0 0 0 0 0  0 0 0 0.3 0" type="matrix" in="shadowBlurOuter1"></feColorMatrix>
        </filter>
    </defs>
    <g id="Admin-Bits" stroke="none" stroke-width="1" fill="none" fill-rule="evenodd">
        <g id="crear-noticias" transform="translate(-603.000000, -580.000000)">
            <g id="Group-11" transform="translate(354.000000, 235.000000)">
                <g id="Group-3" transform="translate(32.000000, 40.000000)">
                    <g id="icono-imagen-noticia-cargada" transform="translate(219.000000, 307.000000)">
                        <rect id="Rectangle" stroke="#11CA73" stroke-width="2" fill-opacity="0.198481206" fill="#11CA73" x="-1" y="-1" width="123" height="123" rx="4"></rect>
                        <g id="Rectangle">
                            <use fill="black" fill-opacity="1" filter="url(#filter-2)" xlink:href="#path-1"></use>
                            <use fill="#FFFFFF" fill-rule="evenodd" xlink:href="#path-1"></use>
                        </g>
                        <g id="add_photo_alternate_black_24dp" transform="translate(45.000000, 45.000000)">
                            <polygon id="Path" points="0 0 32 0 32 32 0 32"></polygon>
                            <g id="image_black_24dp" transform="translate(0.000000, 2.000000)">
                                <polygon id="Path" points="0 0 30 0 30 30 0 30"></polygon>
                                <path d="M27,23.4444444 L27,5.55555556 C27,4.15 25.85,3 24.4444444,3 L6.55555556,3 C5.15,3 4,4.15 4,5.55555556 L4,23.4444444 C4,24.85 5.15,26 6.55555556,26 L24.4444444,26 C25.85,26 27,24.85 27,23.4444444 Z M11.5388889,17.03 L14.2222222,20.2627778 L18.1833333,15.1644444 C18.4388889,14.8322222 18.95,14.8322222 19.2055556,15.1772222 L23.6905556,21.1572222 C24.01,21.5788889 23.7033333,22.1794444 23.1794444,22.1794444 L7.85888889,22.1794444 C7.32222222,22.1794444 7.02833333,21.5661111 7.36055556,21.1444444 L10.5422222,17.0555556 C10.785,16.7233333 11.2705556,16.7105556 11.5388889,17.03 Z" id="Shape" fill="#11CA73" fill-rule="nonzero"></path>
                            </g>
                        </g>
                    </g>
                </g>
            </g>
        </g>
    </g>
</svg>