<?xml version="1.0" encoding="UTF-8"?>
<svg width="24px" height="24px" viewBox="0 0 24 24" version="1.1" xmlns="http://www.w3.org/2000/svg" xmlns:xlink="http://www.w3.org/1999/xlink">
    <title>icono_sb_configuraciones</title>
    <g id="Admin-Bits" stroke="none" stroke-width="1" fill="none" fill-rule="evenodd" opacity="0.6">
        <g id="mi-empresa" transform="translate(-17.000000, -617.000000)">
            <g id="side-bar" transform="translate(0.000000, 74.000000)">
                <g id="Group-6" transform="translate(0.000000, 92.000000)">
                    <g id="Group-4" transform="translate(6.000000, 396.000000)">
                        <g id="icono_sb_configuraciones" transform="translate(11.000000, 55.000000)">
                            <polygon id="Path" points="0 0 24 0 24 24 0 24"></polygon>
                            <g id="Group" transform="translate(4.000000, 3.000000)" fill="#FFFFFF" fill-rule="nonzero">
                                <path d="M7,10 L7,6 C7,5.45 6.55,5 6,5 L2,5 L2,3 L6,3 C6.55,3 7,2.55 7,2 C7,1.45 6.55,1 6,1 L4.5,1 C4.5,0.45 4.05,0 3.5,0 C2.95,0 2.5,0.45 2.5,1 L1,1 C0.45,1 0,1.45 0,2 L0,6 C0,6.55 0.45,7 1,7 L5,7 L5,9 L1,9 C0.45,9 0,9.45 0,10 C0,10.55 0.45,11 1,11 L2.5,11 C2.5,11.55 2.95,12 3.5,12 C4.05,12 4.5,11.55 4.5,11 L6,11 C6.55,11 7,10.55 7,10 Z" id="Path"></path>
                                <path d="M14.88,10.22 L9.93,15.17 L7.81,13.05 C7.42,12.66 6.79,12.66 6.4,13.05 L6.4,13.05 C6.01,13.44 6.01,14.07 6.4,14.46 L9.23,17.29 C9.62,17.68 10.25,17.68 10.64,17.29 L16.3,11.63 C16.69,11.24 16.69,10.61 16.3,10.22 L16.3,10.22 C15.9,9.83 15.27,9.83 14.88,10.22 Z" id="Path"></path>
                            </g>
                        </g>
                    </g>
                </g>
            </g>
        </g>
    </g>
</svg>