<svg width="105" height="105" viewBox="0 0 105 105" fill="none" xmlns="http://www.w3.org/2000/svg">
<path d="M62.3438 35.3138L52.5001 45.1576L42.6563 35.3138C40.6251 33.2826 37.3438 33.2826 35.3126 35.3138C33.2813 37.3451 33.2813 40.6263 35.3126 42.6576L45.1563 52.5013L35.3126 62.3451C33.2813 64.3763 33.2813 67.6576 35.3126 69.6888C37.3438 71.7201 40.6251 71.7201 42.6563 69.6888L52.5001 59.8451L62.3438 69.6888C64.3751 71.7201 67.6563 71.7201 69.6876 69.6888C71.7188 67.6576 71.7188 64.3763 69.6876 62.3451L59.8438 52.5013L69.6876 42.6576C71.7188 40.6263 71.7188 37.3451 69.6876 35.3138C67.6563 33.3346 64.323 33.3346 62.3438 35.3138ZM52.5001 0.417969C23.698 0.417969 0.416748 23.6992 0.416748 52.5013C0.416748 81.3034 23.698 104.585 52.5001 104.585C81.3022 104.585 104.583 81.3034 104.583 52.5013C104.583 23.6992 81.3022 0.417969 52.5001 0.417969ZM52.5001 94.168C29.5313 94.168 10.8334 75.4701 10.8334 52.5013C10.8334 29.5326 29.5313 10.8346 52.5001 10.8346C75.4688 10.8346 94.1667 29.5326 94.1667 52.5013C94.1667 75.4701 75.4688 94.168 52.5001 94.168Z" fill="#E0544B"/>
</svg>
