<?xml version="1.0" encoding="UTF-8"?>
<svg width="24px" height="24px" viewBox="0 0 24 24" version="1.1" xmlns="http://www.w3.org/2000/svg" xmlns:xlink="http://www.w3.org/1999/xlink">
    <title>icono-noticias-select</title>
    <g id="Admin-Bits" stroke="none" stroke-width="1" fill="none" fill-rule="evenodd">
        <g id="12-inactivo" transform="translate(-17.000000, -416.000000)">
            <g id="side-bar" transform="translate(0.000000, 74.000000)">
                <g id="Group-6" transform="translate(0.000000, 161.000000)">
                    <g id="icono-noticias-select" transform="translate(17.000000, 181.000000)">
                        <polygon id="Path" points="0 0 24 0 24 24 0 24"></polygon>
                        <path d="M16,3 L5,3 C3.9,3 3,3.9 3,5 L3,19 C3,20.1 3.9,21 5,21 L19,21 C20.1,21 21,20.1 21,19 L21,8 L16,3 Z M8,7 L11,7 C11.55,7 12,7.45 12,8 L12,8 C12,8.55 11.55,9 11,9 L8,9 C7.45,9 7,8.55 7,8 L7,8 C7,7.45 7.45,7 8,7 Z M16,17 L8,17 C7.45,17 7,16.55 7,16 L7,16 C7,15.45 7.45,15 8,15 L16,15 C16.55,15 17,15.45 17,16 L17,16 C17,16.55 16.55,17 16,17 Z M16,13 L8,13 C7.45,13 7,12.55 7,12 L7,12 C7,11.45 7.45,11 8,11 L16,11 C16.55,11 17,11.45 17,12 L17,12 C17,12.55 16.55,13 16,13 Z M15,8 L15,5 L19,9 L16,9 C15.45,9 15,8.55 15,8 Z" id="Shape" fill="#093C5D" fill-rule="nonzero"></path>
                    </g>
                </g>
            </g>
        </g>
    </g>
</svg>