<svg width="11" height="11" viewBox="0 0 11 11" fill="none" xmlns="http://www.w3.org/2000/svg">
<path d="M6.98926 4.25V1.75C6.98926 1.0625 6.42676 0.5 5.73926 0.5C5.05176 0.5 4.48926 1.0625 4.48926 1.75V4.25H1.98926C1.30176 4.25 0.739258 4.8125 0.739258 5.5C0.739258 6.1875 1.30176 6.75 1.98926 6.75H4.48926V9.25C4.48926 9.9375 5.05176 10.5 5.73926 10.5C6.42676 10.5 6.98926 9.9375 6.98926 9.25V6.75H9.48926C10.1768 6.75 10.7393 6.1875 10.7393 5.5C10.7393 4.8125 10.1768 4.25 9.48926 4.25H6.98926Z" fill="#093C5D"/>
</svg>
