<svg width="42" height="42" viewBox="0 0 42 42" fill="none" xmlns="http://www.w3.org/2000/svg">
<rect x="1" y="1" width="40" height="40" rx="4" fill="white" stroke="#C7CCDC" stroke-width="0.8"/>
<path fill-rule="evenodd" clip-rule="evenodd" d="M27.175 17.175L23.15 13.15C22.8417 12.8417 22.4167 12.6667 21.975 12.6667H16C15.0834 12.6667 14.3417 13.4167 14.3417 14.3333L14.3334 27.6667C14.3334 28.5833 15.075 29.3333 15.9917 29.3333H26C26.9167 29.3333 27.6667 28.5833 27.6667 27.6667V18.3583C27.6667 17.9167 27.4917 17.4917 27.175 17.175ZM23.3334 23.5H21.8334V26C21.8334 26.4583 21.4584 26.8333 21 26.8333C20.5417 26.8333 20.1667 26.4583 20.1667 26V23.5H18.675C18.3 23.5 18.1167 23.05 18.3834 22.7917L20.7167 20.4667C20.8834 20.3083 21.1417 20.3083 21.3084 20.4667L23.6334 22.7917C23.8834 23.05 23.7 23.5 23.3334 23.5ZM21.8334 17.6667C21.8334 18.125 22.2084 18.5 22.6667 18.5H26.4167L21.8334 13.9167V17.6667Z" fill="#093C5D"/>
</svg>
