<?xml version="1.0" encoding="UTF-8"?>
<svg width="26px" height="26px" viewBox="0 0 26 26" version="1.1" xmlns="http://www.w3.org/2000/svg" xmlns:xlink="http://www.w3.org/1999/xlink">
    <title>icono-expander</title>
    <g id="Admin-Bits" stroke="none" stroke-width="1" fill="none" fill-rule="evenodd">
        <g id="1-dashboard" transform="translate(-237.000000, -86.000000)">
            <g id="icono-expander" transform="translate(237.000000, 86.000000)">
                <circle id="Oval" fill="#FABB00" cx="13" cy="13" r="13"></circle>
                <g id="menu_open_black_24dp" transform="translate(3.000000, 3.000000)">
                    <polygon id="Path" points="0 0 20 0 20 20 0 20"></polygon>
                    <path d="M3.33333333,15 L12.5,15 C12.9583333,15 13.3333333,14.625 13.3333333,14.1666667 L13.3333333,14.1666667 C13.3333333,13.7083333 12.9583333,13.3333333 12.5,13.3333333 L3.33333333,13.3333333 C2.875,13.3333333 2.5,13.7083333 2.5,14.1666667 L2.5,14.1666667 C2.5,14.625 2.875,15 3.33333333,15 Z M3.33333333,10.8333333 L10,10.8333333 C10.4583333,10.8333333 10.8333333,10.4583333 10.8333333,10 L10.8333333,10 C10.8333333,9.54166667 10.4583333,9.16666667 10,9.16666667 L3.33333333,9.16666667 C2.875,9.16666667 2.5,9.54166667 2.5,10 L2.5,10 C2.5,10.4583333 2.875,10.8333333 3.33333333,10.8333333 Z M2.5,5.83333333 L2.5,5.83333333 C2.5,6.29166667 2.875,6.66666667 3.33333333,6.66666667 L12.5,6.66666667 C12.9583333,6.66666667 13.3333333,6.29166667 13.3333333,5.83333333 L13.3333333,5.83333333 C13.3333333,5.375 12.9583333,5 12.5,5 L3.33333333,5 C2.875,5 2.5,5.375 2.5,5.83333333 Z M16.9166667,12.4 L14.5166667,10 L16.9166667,7.6 C17.2416667,7.275 17.2416667,6.75 16.9166667,6.425 L16.9166667,6.425 C16.5916667,6.1 16.0666667,6.1 15.7416667,6.425 L12.75,9.41666667 C12.425,9.74166667 12.425,10.2666667 12.75,10.5916667 L15.7416667,13.5833333 C16.0666667,13.9083333 16.5916667,13.9083333 16.9166667,13.5833333 L16.9166667,13.5833333 C17.2333333,13.2583333 17.2416667,12.725 16.9166667,12.4 Z" id="Shape" fill="#093D5D" fill-rule="nonzero"></path>
                    <polygon id="Path" points="0 0 20 0 20 20 0 20"></polygon>
                </g>
            </g>
        </g>
    </g>
</svg>