<svg width="9" height="11" viewBox="0 0 9 11" fill="none" xmlns="http://www.w3.org/2000/svg">
<path fill-rule="evenodd" clip-rule="evenodd" d="M6.11015 0.384861L6.5264 0.80111H7.99206C8.31451 0.80111 8.57833 1.06493 8.57833 1.38738C8.57833 1.70982 8.31451 1.97364 7.99206 1.97364H0.956871C0.634425 1.97364 0.370605 1.70982 0.370605 1.38738C0.370605 1.06493 0.634425 0.80111 0.956871 0.80111H2.42254L2.83878 0.384861C2.94431 0.279333 3.09674 0.214844 3.24917 0.214844H5.69976C5.85219 0.214844 6.00462 0.279333 6.11015 0.384861ZM0.956728 9.59624C0.956728 10.2411 1.48437 10.7688 2.12926 10.7688H6.81939C7.46428 10.7688 7.99192 10.2411 7.99192 9.59624V3.73358C7.99192 3.08869 7.46428 2.56105 6.81939 2.56105H2.12926C1.48437 2.56105 0.956728 3.08869 0.956728 3.73358V9.59624ZM2.71567 3.73244H6.23326C6.55571 3.73244 6.81953 3.99626 6.81953 4.3187V9.00883C6.81953 9.33128 6.55571 9.5951 6.23326 9.5951H2.71567C2.39322 9.5951 2.1294 9.33128 2.1294 9.00883V4.3187C2.1294 3.99626 2.39322 3.73244 2.71567 3.73244Z" fill="#303030"/>
</svg>
