<svg width="14" height="17" viewBox="0 0 14 17" fill="none" xmlns="http://www.w3.org/2000/svg">
<path fill-rule="evenodd" clip-rule="evenodd" d="M9.83632 0.273888C10.2581 0.702845 10.8344 0.944446 11.436 0.944446H12.817C13.3278 0.944446 13.7456 1.36944 13.7456 1.88889C13.7456 2.40833 13.3278 2.83333 12.817 2.83333H1.67418C1.16346 2.83333 0.745605 2.40833 0.745605 1.88889C0.745605 1.36944 1.16346 0.944446 1.67418 0.944446H3.05523C3.65679 0.944446 4.23315 0.702845 4.65489 0.273888C4.82204 0.103888 5.06346 0 5.30489 0H9.18632C9.42775 0 9.66918 0.103888 9.83632 0.273888ZM1.67418 15.1111C1.67418 16.15 2.50989 17 3.53132 17H10.9599C11.9813 17 12.817 16.15 12.817 15.1111V5.66667C12.817 4.62778 11.9813 3.77778 10.9599 3.77778H3.53132C2.50989 3.77778 1.67418 4.62778 1.67418 5.66667V15.1111ZM4.45989 5.66667H10.0313C10.542 5.66667 10.9599 6.09167 10.9599 6.61111V14.1667C10.9599 14.6861 10.542 15.1111 10.0313 15.1111H4.45989C3.94918 15.1111 3.53132 14.6861 3.53132 14.1667V6.61111C3.53132 6.09167 3.94918 5.66667 4.45989 5.66667Z" fill="#E0544B"/>
</svg>
