<svg width="10" height="14" viewBox="0 0 10 14" fill="none" xmlns="http://www.w3.org/2000/svg">
<path fill-rule="evenodd" clip-rule="evenodd" d="M5.00016 4.54545V3.50129C3.06933 3.50129 1.50016 5.07045 1.50016 7.00129C1.50016 7.46212 1.58766 7.91129 1.75683 8.31379C1.84433 8.52379 1.78016 8.76295 1.62266 8.92045C1.32516 9.21795 0.823496 9.11295 0.665996 8.72212C0.450163 8.19129 0.333496 7.60795 0.333496 7.00129C0.333496 4.42295 2.42183 2.33462 5.00016 2.33462V1.29045C5.00016 1.02795 5.31516 0.899621 5.496 1.08045L7.1235 2.70795C7.24016 2.82462 7.24016 3.00545 7.1235 3.12212L5.496 4.74962C5.31516 4.93629 5.00016 4.80795 5.00016 4.54545ZM8.2435 5.68879C8.156 5.48462 8.22016 5.23962 8.37766 5.08212C8.67516 4.78462 9.17683 4.88962 9.33433 5.28045C9.55016 5.81129 9.66683 6.39462 9.66683 7.00129C9.66683 9.57962 7.5785 11.668 5.00016 11.668V12.718C5.00016 12.9746 4.68516 13.103 4.50433 12.9221L2.87683 11.2946C2.76016 11.178 2.76016 10.9971 2.87683 10.8805L4.50433 9.25295C4.68516 9.06629 5.00016 9.19462 5.00016 9.45712V10.5013C6.931 10.5013 8.50016 8.93212 8.50016 7.00129C8.50016 6.54045 8.40683 6.09712 8.2435 5.68879Z" fill="#093C5D"/>
</svg>
