<svg width="3" height="11" viewBox="0 0 3 11" fill="none" xmlns="http://www.w3.org/2000/svg">
<path d="M2.63192 0.910156L2.4126 7.62918H0.817581L0.59162 0.910156H2.63192ZM0.538452 9.70936C0.538452 9.4258 0.635926 9.19097 0.830873 9.00489C1.03025 8.81437 1.29166 8.71911 1.61509 8.71911C1.94296 8.71911 2.20436 8.81437 2.39931 9.00489C2.59426 9.19097 2.69173 9.4258 2.69173 9.70936C2.69173 9.98405 2.59426 10.2167 2.39931 10.4072C2.20436 10.5977 1.94296 10.693 1.61509 10.693C1.29166 10.693 1.03025 10.5977 0.830873 10.4072C0.635926 10.2167 0.538452 9.98405 0.538452 9.70936Z" fill="#FABB00"/>
</svg>
