<?xml version="1.0" encoding="utf-8"?>
<!-- Generator: Adobe Illustrator 25.3.0, SVG Export Plug-In . SVG Version: 6.00 Build 0)  -->
<svg version="1.1" id="Capa_1" xmlns="http://www.w3.org/2000/svg" xmlns:xlink="http://www.w3.org/1999/xlink" x="0px" y="0px"
	 viewBox="0 0 27 27" style="enable-background:new 0 0 27 27;" xml:space="preserve">
<style type="text/css">
	.st0{fill:none;}
	.st1{fill:#7A7A7A;}
</style>
<g id="Admin-Bits">
	<g id="nomina-1" transform="translate(-785.000000, -504.000000)">
		<g id="Group-22" transform="translate(785.000000, 469.000000)">
			<g id="icono-flecha-derecha" transform="translate(0.000000, 35.000000)">
				<g id="arrow_x5F_forward_x5F_black_x5F_24dp-_x28_2_x29_" transform="translate(21.000000, 5.000000)">
					<polygon id="Path" class="st0" points="-21,-5 6,-5 6,22 -21,22 					"/>
					<path id="Path_1_" class="st1" d="M-15.4,9.6h12.6l-5.5,5.5c-0.4,0.4-0.4,1.2,0,1.6c0.4,0.4,1.1,0.4,1.6,0l7.4-7.4
						c0.4-0.4,0.4-1.1,0-1.6l-7.4-7.4c-0.4-0.4-1.1-0.4-1.6,0c-0.4,0.4-0.4,1.1,0,1.6l5.5,5.5h-12.6c-0.6,0-1.1,0.5-1.1,1.1
						S-16,9.6-15.4,9.6z"/>
				</g>
			</g>
		</g>
	</g>
</g>
</svg>
