<svg width="10" height="12" viewBox="0 0 10 12" fill="none" xmlns="http://www.w3.org/2000/svg">
<path fill-rule="evenodd" clip-rule="evenodd" d="M6.99967 4H8.05967C8.65301 4 8.94634 4.72 8.52634 5.14L5.46634 8.2C5.20634 8.46 4.78634 8.46 4.52634 8.2L1.46634 5.14C1.04634 4.72 1.34634 4 1.93967 4H2.99967V0.666667C2.99967 0.3 3.29967 0 3.66634 0H6.33301C6.69967 0 6.99967 0.3 6.99967 0.666667V4ZM0.999674 11.3333C0.633008 11.3333 0.333008 11.0333 0.333008 10.6667C0.333008 10.3 0.633008 10 0.999674 10H8.99967C9.36634 10 9.66634 10.3 9.66634 10.6667C9.66634 11.0333 9.36634 11.3333 8.99967 11.3333H0.999674Z" fill="#093C5D"/>
</svg>
