<svg width="12" height="12" viewBox="0 0 12 12" fill="none" xmlns="http://www.w3.org/2000/svg">
<path fill-rule="evenodd" clip-rule="evenodd" d="M9.72667 0.393333C9.47333 0.14 9.13333 0 8.78 0H1.33333C0.593333 0 0 0.6 0 1.33333V10.6667C0 11.4 0.6 12 1.33333 12H10.6667C11.4 12 12 11.4 12 10.6667V3.22C12 2.86667 11.86 2.52667 11.6067 2.28L9.72667 0.393333ZM6 10.6667C4.89333 10.6667 4 9.77333 4 8.66667C4 7.56 4.89333 6.66667 6 6.66667C7.10667 6.66667 8 7.56 8 8.66667C8 9.77333 7.10667 10.6667 6 10.6667ZM2.66667 4H6.66667C7.4 4 8 3.4 8 2.66667C8 1.93333 7.4 1.33333 6.66667 1.33333H2.66667C1.93333 1.33333 1.33333 1.93333 1.33333 2.66667C1.33333 3.4 1.93333 4 2.66667 4Z" fill="#093C5D"/>
</svg>
