<svg width="15" height="14" viewBox="0 0 15 14" fill="none" xmlns="http://www.w3.org/2000/svg">
<path fill-rule="evenodd" clip-rule="evenodd" d="M7.00001 10.6667V9.33333H8.33334V8H7.00001V6.66667H8.33334V5.33333H7.00001V4H12.3333V8H13.6667V3.33333C13.6667 2.96667 13.3667 2.66667 13 2.66667H7.00001V0.666667C7.00001 0.3 6.70001 0 6.33334 0H1.00001C0.633344 0 0.333344 0.3 0.333344 0.666667V11.3333C0.333344 11.7 0.633344 12 1.00001 12H9.66668V10.6667H7.00001ZM1.66668 2.66667H3.00001V1.33333H1.66668V2.66667ZM3.00001 5.33333H1.66668V4H3.00001V5.33333ZM1.66668 8H3.00001V6.66667H1.66668V8ZM1.66668 10.6667H3.00001V9.33333H1.66668V10.6667ZM5.66668 10.6667H4.33334V9.33333H5.66668V10.6667ZM4.33334 8H5.66668V6.66667H4.33334V8ZM5.66668 5.33333H4.33334V4H5.66668V5.33333ZM4.33334 2.66667H5.66668V1.33333H4.33334V2.66667ZM9.66668 5.33333H11V6.66667H9.66668V5.33333ZM11 8H9.66668V9.33333H11V8ZM14.3333 12C14.7 12 15 11.7 15 11.3333C15 10.9667 14.7 10.6667 14.3333 10.6667H13.6667V10C13.6667 9.63333 13.3667 9.33333 13 9.33333C12.6333 9.33333 12.3333 9.63333 12.3333 10V10.6667H11.6667C11.3 10.6667 11 10.9667 11 11.3333C11 11.7 11.3 12 11.6667 12H12.3333V12.6667C12.3333 13.0333 12.6333 13.3333 13 13.3333C13.3667 13.3333 13.6667 13.0333 13.6667 12.6667V12H14.3333Z" fill="#093C5D"/>
</svg>
