<svg width="10" height="12" viewBox="0 0 10 12" fill="none" xmlns="http://www.w3.org/2000/svg">
<path fill-rule="evenodd" clip-rule="evenodd" d="M6.85992 0.193333L7.33325 0.666667H8.99992C9.36659 0.666667 9.66658 0.966667 9.66658 1.33333C9.66658 1.7 9.36659 2 8.99992 2H0.999919C0.633252 2 0.333252 1.7 0.333252 1.33333C0.333252 0.966667 0.633252 0.666667 0.999919 0.666667H2.66659L3.13992 0.193333C3.25992 0.0733333 3.43325 0 3.60659 0H6.39325C6.56659 0 6.73992 0.0733333 6.85992 0.193333ZM0.999919 10.6667C0.999919 11.4 1.59992 12 2.33325 12H7.66658C8.39992 12 8.99992 11.4 8.99992 10.6667V4C8.99992 3.26667 8.39992 2.66667 7.66658 2.66667H2.33325C1.59992 2.66667 0.999919 3.26667 0.999919 4V10.6667ZM2.99992 4H6.99992C7.36659 4 7.66659 4.3 7.66659 4.66667V10C7.66659 10.3667 7.36659 10.6667 6.99992 10.6667H2.99992C2.63325 10.6667 2.33325 10.3667 2.33325 10V4.66667C2.33325 4.3 2.63325 4 2.99992 4Z" fill="#E0544B"/>
</svg>
