<?xml version="1.0" encoding="UTF-8"?>
<svg width="24px" height="24px" viewBox="0 0 24 24" version="1.1" xmlns="http://www.w3.org/2000/svg" xmlns:xlink="http://www.w3.org/1999/xlink">
    <title>icono-estructura-select</title>
    <g id="Admin-Bits" stroke="none" stroke-width="1" fill="none" fill-rule="evenodd">
        <g id="1-dashboard" transform="translate(-18.000000, -194.000000)">
            <g id="side-bar" transform="translate(0.000000, 72.000000)">
                <g id="Group-13" transform="translate(0.000000, 53.500000)">
                    <g id="icono-estructura-select" transform="translate(18.000000, 68.500000)">
                        <g id="Group">
                            <rect id="Rectangle" x="0" y="0" width="24" height="24"></rect>
                            <rect id="Rectangle" x="0" y="0" width="24" height="24"></rect>
                        </g>
                        <g id="Group" transform="translate(3.000000, 3.000000)" fill="#093C5D" fill-rule="nonzero">
                            <path d="M17,0 L9,0 C8.45,0 8,0.45 8,1 L8,2.61 C8,2.61 8,2.61 8.01,2.62 L13.01,7.12 C13.64,7.68 14,8.5 14,9.35 L14,10 L16,10 L16,12 L14,12 L14,14 L16,14 L16,16 L14,16 L14,18 L17,18 C17.55,18 18,17.55 18,17 L18,1 C18,0.45 17.55,0 17,0 Z M12,4 L10,4 L10,2 L12,2 L12,4 Z M16,8 L14,8 L14,6 L16,6 L16,8 Z M16,4 L14,4 L14,2 L16,2 L16,4 Z" id="Shape"></path>
                            <path d="M12,17 L12,9.35 C12,9.07 11.88,8.8 11.67,8.61 L6.67,4.11 C6.48,3.93 6.24,3.85 6,3.85 C5.76,3.85 5.52,3.94 5.33,4.11 L0.33,8.61 C0.12,8.79 0,9.06 0,9.35 L0,17 C0,17.55 0.45,18 1,18 L3,18 C3.55,18 4,17.55 4,17 L4,13 L8,13 L8,17 C8,17.55 8.45,18 9,18 L11,18 C11.55,18 12,17.55 12,17 Z" id="Path"></path>
                        </g>
                    </g>
                </g>
            </g>
        </g>
    </g>
</svg>