<svg width="14" height="14" viewBox="0 0 14 14" fill="none" xmlns="http://www.w3.org/2000/svg">
<path d="M13.3 0.71461C12.91 0.32461 12.28 0.32461 11.89 0.71461L6.99997 5.59461L2.10997 0.704609C1.71997 0.314609 1.08997 0.314609 0.699971 0.704609C0.309971 1.09461 0.309971 1.72461 0.699971 2.11461L5.58997 7.00461L0.699971 11.8946C0.309971 12.2846 0.309971 12.9146 0.699971 13.3046C1.08997 13.6946 1.71997 13.6946 2.10997 13.3046L6.99997 8.41461L11.89 13.3046C12.28 13.6946 12.91 13.6946 13.3 13.3046C13.69 12.9146 13.69 12.2846 13.3 11.8946L8.40997 7.00461L13.3 2.11461C13.68 1.73461 13.68 1.09461 13.3 0.71461Z" fill="#7A7A7A"/>
</svg>
