<svg width="28" height="35" viewBox="0 0 28 35" fill="none" xmlns="http://www.w3.org/2000/svg">
<path fill-rule="evenodd" clip-rule="evenodd" d="M24.5 15.25V24L26.7575 26.2575C27.86 27.36 27.0725 29.25 25.515 29.25H2.46747C0.909968 29.25 0.139968 27.36 1.24247 26.2575L3.49997 24V15.25C3.49997 9.86 6.35247 5.38 11.375 4.19V3C11.375 1.5475 12.5475 0.375 14 0.375C15.4525 0.375 16.625 1.5475 16.625 3V4.19C21.63 5.38 24.5 9.8775 24.5 15.25ZM17.5 31C17.5 32.925 15.925 34.5 14 34.5C12.0575 34.5 10.5 32.925 10.5 31H17.5Z" fill="white"/>
</svg>
