<svg width="14" height="14" viewBox="0 0 14 14" fill="none" xmlns="http://www.w3.org/2000/svg">
<path d="M13.6256 0.975209C13.2357 0.584134 12.6057 0.584134 12.2158 0.975209L7.32625 5.86866L2.43671 0.965181C2.04675 0.574106 1.41681 0.574106 1.02685 0.965181C0.636884 1.35626 0.636884 1.98799 1.02685 2.37907L5.91638 7.28254L1.02685 12.186C0.636884 12.5771 0.636884 13.2088 1.02685 13.5999C1.41681 13.991 2.04675 13.991 2.43671 13.5999L7.32625 8.69642L12.2158 13.5999C12.6057 13.991 13.2357 13.991 13.6256 13.5999C14.0156 13.2088 14.0156 12.5771 13.6256 12.186L8.73611 7.28254L13.6256 2.37907C14.0056 1.99802 14.0056 1.35626 13.6256 0.975209Z" fill="#7A7A7A"/>
</svg>
