<svg width="21" height="26" viewBox="0 0 21 26" fill="none" xmlns="http://www.w3.org/2000/svg">
<path d="M6.24805 11.249H5.01074V10.3228H6.24805C6.41667 10.3228 6.55339 10.2943 6.6582 10.2373C6.76302 10.1803 6.83936 10.1017 6.88721 10.0015C6.93734 9.89893 6.9624 9.78385 6.9624 9.65625C6.9624 9.51953 6.93734 9.39307 6.88721 9.27686C6.83936 9.16064 6.76302 9.06722 6.6582 8.99658C6.55339 8.92367 6.41667 8.88721 6.24805 8.88721H5.46191V12.9375H4.26221V7.96094H6.24805C6.64681 7.96094 6.98975 8.03385 7.27686 8.17969C7.56624 8.32552 7.78841 8.52604 7.94336 8.78125C8.09831 9.03418 8.17578 9.32357 8.17578 9.64941C8.17578 9.9707 8.09831 10.251 7.94336 10.4902C7.78841 10.7295 7.56624 10.9163 7.27686 11.0508C6.98975 11.1829 6.64681 11.249 6.24805 11.249ZM10.6885 12.9375H9.58447L9.59131 12.0146H10.6885C10.9163 12.0146 11.1089 11.96 11.2661 11.8506C11.4256 11.7412 11.5464 11.5783 11.6284 11.3618C11.7127 11.1431 11.7549 10.8742 11.7549 10.5552V10.3398C11.7549 10.1006 11.731 9.89095 11.6831 9.71094C11.6375 9.52865 11.5692 9.37712 11.478 9.25635C11.3869 9.1333 11.2729 9.04102 11.1362 8.97949C11.0018 8.91797 10.8468 8.88721 10.6714 8.88721H9.56396V7.96094H10.6714C11.0086 7.96094 11.3174 8.01904 11.5977 8.13525C11.8802 8.24919 12.124 8.41325 12.3291 8.62744C12.5365 8.83936 12.696 9.09115 12.8076 9.38281C12.9215 9.6722 12.9785 9.99349 12.9785 10.3467V10.5552C12.9785 10.9061 12.9215 11.2274 12.8076 11.519C12.696 11.8107 12.5376 12.0625 12.3325 12.2744C12.1274 12.4863 11.8848 12.6504 11.6045 12.7666C11.3265 12.8805 11.0212 12.9375 10.6885 12.9375ZM10.2715 7.96094V12.9375H9.07178V7.96094H10.2715ZM15.0537 7.96094V12.9375H13.854V7.96094H15.0537ZM16.9883 10.0322V10.9551H14.7119V10.0322H16.9883ZM17.1831 7.96094V8.88721H14.7119V7.96094H17.1831Z" fill="#093C5D"/>
<path fill-rule="evenodd" clip-rule="evenodd" d="M15.0232 0.15625H3.00509C1.75236 0.15625 0.736816 1.05211 0.736816 2.15721V18.1865C0.736816 19.2916 1.75236 20.1875 3.00509 20.1875H11.7218V18.1865L3.00509 18.1865V2.1572H17.0909L15.0232 0.15625ZM18.1766 3.20786L18.1766 16.4922H18.185V20.1875C19.4338 20.1835 20.4448 19.2892 20.4448 18.1865V5.40295L18.1766 3.20786Z" fill="#093C5D"/>
<path d="M18.1302 20.793H17.0702V17.4596C17.0702 17.093 16.7702 16.793 16.4035 16.793H13.7368C13.3702 16.793 13.0702 17.093 13.0702 17.4596V20.793H12.0102C11.4168 20.793 11.1168 21.513 11.5368 21.933L14.5968 24.993C14.8568 25.253 15.2768 25.253 15.5368 24.993L18.5968 21.933C19.0168 21.513 18.7235 20.793 18.1302 20.793Z" fill="#093C5D"/>
<path fill-rule="evenodd" clip-rule="evenodd" d="M15.6469 0.757812H13.2627V6.21307H19.4115V4.401L15.6469 0.757812Z" fill="#093C5D"/>
</svg>
