<svg width="10" height="7" viewBox="0 0 10 7" fill="none" xmlns="http://www.w3.org/2000/svg">
<path fill-rule="evenodd" clip-rule="evenodd" d="M4.99996 0.666016C2.91663 0.666016 1.13746 1.96185 0.416626 3.79102C1.13746 5.62018 2.91663 6.91602 4.99996 6.91602C7.08329 6.91602 8.86246 5.62018 9.58329 3.79102C8.86246 1.96185 7.08329 0.666016 4.99996 0.666016ZM4.99996 5.87435C3.84996 5.87435 2.91663 4.94102 2.91663 3.79102C2.91663 2.64102 3.84996 1.70768 4.99996 1.70768C6.14996 1.70768 7.08329 2.64102 7.08329 3.79102C7.08329 4.94102 6.14996 5.87435 4.99996 5.87435ZM3.74996 3.79102C3.74996 3.09935 4.30829 2.54102 4.99996 2.54102C5.69163 2.54102 6.24996 3.09935 6.24996 3.79102C6.24996 4.48268 5.69163 5.04102 4.99996 5.04102C4.30829 5.04102 3.74996 4.48268 3.74996 3.79102Z" fill="#2186C6"/>
</svg>
