<?xml version="1.0" encoding="UTF-8"?>
<svg width="24px" height="24px" viewBox="0 0 24 24" version="1.1" xmlns="http://www.w3.org/2000/svg" xmlns:xlink="http://www.w3.org/1999/xlink">
    <title>feedback_black_24dp</title>
    <g id="Admin-Bits" stroke="none" stroke-width="1" fill="none" fill-rule="evenodd">
        <g id="12-inactivo" transform="translate(-17.000000, -532.000000)">
            <g id="side-bar" transform="translate(0.000000, 74.000000)">
                <g id="feedback_black_24dp" transform="translate(17.000000, 458.000000)">
                    <polygon id="Path" points="0 0 24 0 24 24 0 24"></polygon>
                    <path d="M20,2 L4.01,2 C2.91,2 2.01,2.9 2.01,4 L2.01,22 L6,18 L20,18 C21.1,18 22,17.1 22,16 L22,4 C22,2.9 21.1,2 20,2 Z M13,14 L11,14 L11,12 L13,12 L13,14 Z M13,9 C13,9.55 12.55,10 12,10 C11.45,10 11,9.55 11,9 L11,7 C11,6.45 11.45,6 12,6 C12.55,6 13,6.45 13,7 L13,9 Z" id="Shape" fill="#093C5D" fill-rule="nonzero"></path>
                </g>
            </g>
        </g>
    </g>
</svg>