<svg width="10" height="10" viewBox="0 0 10 10" fill="none" xmlns="http://www.w3.org/2000/svg">
<path d="M6.25003 3.75V1.25C6.25003 0.5625 5.68753 0 5.00003 0C4.31253 0 3.75003 0.5625 3.75003 1.25V3.75H1.25003C0.562531 3.75 3.05176e-05 4.3125 3.05176e-05 5C3.05176e-05 5.6875 0.562531 6.25 1.25003 6.25H3.75003V8.75C3.75003 9.4375 4.31253 10 5.00003 10C5.68753 10 6.25003 9.4375 6.25003 8.75V6.25H8.75003C9.43753 6.25 10 5.6875 10 5C10 4.3125 9.43753 3.75 8.75003 3.75H6.25003Z" fill="#093C5D"/>
</svg>
