<svg width="14" height="14" viewBox="0 0 14 14" fill="none" xmlns="http://www.w3.org/2000/svg">
<path d="M13.3002 0.71461C12.9102 0.32461 12.2802 0.32461 11.8902 0.71461L7.00022 5.59461L2.11022 0.704609C1.72022 0.314609 1.09021 0.314609 0.700215 0.704609C0.310215 1.09461 0.310215 1.72461 0.700215 2.11461L5.59022 7.00461L0.700215 11.8946C0.310215 12.2846 0.310215 12.9146 0.700215 13.3046C1.09021 13.6946 1.72022 13.6946 2.11022 13.3046L7.00022 8.41461L11.8902 13.3046C12.2802 13.6946 12.9102 13.6946 13.3002 13.3046C13.6902 12.9146 13.6902 12.2846 13.3002 11.8946L8.41021 7.00461L13.3002 2.11461C13.6802 1.73461 13.6802 1.09461 13.3002 0.71461Z" fill="#7A7A7A"/>
</svg>
