<svg width="21" height="14" viewBox="0 0 21 14" fill="none" xmlns="http://www.w3.org/2000/svg">
<path d="M10.5624 0.25C6.1457 0.25 2.37387 2.99717 0.845703 6.875C2.37387 10.7528 6.1457 13.5 10.5624 13.5C14.979 13.5 18.7509 10.7528 20.279 6.875C18.7509 2.99717 14.979 0.25 10.5624 0.25ZM10.5624 11.2917C8.12437 11.2917 6.1457 9.313 6.1457 6.875C6.1457 4.437 8.12437 2.45833 10.5624 2.45833C13.0004 2.45833 14.979 4.437 14.979 6.875C14.979 9.313 13.0004 11.2917 10.5624 11.2917ZM10.5624 4.225C9.09604 4.225 7.91237 5.40867 7.91237 6.875C7.91237 8.34133 9.09604 9.525 10.5624 9.525C12.0287 9.525 13.2124 8.34133 13.2124 6.875C13.2124 5.40867 12.0287 4.225 10.5624 4.225Z" fill="#093C5D"/>
</svg>
