<svg width="12" height="14" viewBox="0 0 12 14" fill="none" xmlns="http://www.w3.org/2000/svg">
<path fill-rule="evenodd" clip-rule="evenodd" d="M10.94 3.94065L7.71996 0.720651C7.47329 0.473984 7.13329 0.333984 6.77996 0.333984H1.99996C1.26663 0.333984 0.673293 0.933984 0.673293 1.66732L0.666626 12.334C0.666626 13.0673 1.25996 13.6673 1.99329 13.6673H9.99996C10.7333 13.6673 11.3333 13.0673 11.3333 12.334V4.88732C11.3333 4.53398 11.1933 4.19398 10.94 3.94065ZM7.86663 9.00065H6.66663V11.0007C6.66663 11.3673 6.36663 11.6673 5.99996 11.6673C5.63329 11.6673 5.33329 11.3673 5.33329 11.0007V9.00065H4.13996C3.83996 9.00065 3.69329 8.64065 3.90663 8.43398L5.77329 6.57398C5.90663 6.44732 6.11329 6.44732 6.24663 6.57398L8.10663 8.43398C8.30663 8.64065 8.15996 9.00065 7.86663 9.00065ZM6.66663 4.33398C6.66663 4.70065 6.96663 5.00065 7.33329 5.00065H10.3333L6.66663 1.33398V4.33398Z" fill="#093C5D"/>
</svg>
