<svg width="15" height="14" viewBox="0 0 15 14" fill="none" xmlns="http://www.w3.org/2000/svg">
<path fill-rule="evenodd" clip-rule="evenodd" d="M7.00016 10.6667V9.33333H8.3335V8H7.00016V6.66667H8.3335V5.33333H7.00016V4H12.3335V8H13.6668V3.33333C13.6668 2.96667 13.3668 2.66667 13.0002 2.66667H7.00016V0.666667C7.00016 0.3 6.70016 0 6.3335 0H1.00016C0.633496 0 0.333496 0.3 0.333496 0.666667V11.3333C0.333496 11.7 0.633496 12 1.00016 12H9.66683V10.6667H7.00016ZM1.66683 2.66667H3.00016V1.33333H1.66683V2.66667ZM3.00016 5.33333H1.66683V4H3.00016V5.33333ZM1.66683 8H3.00016V6.66667H1.66683V8ZM1.66683 10.6667H3.00016V9.33333H1.66683V10.6667ZM5.66683 10.6667H4.3335V9.33333H5.66683V10.6667ZM4.3335 8H5.66683V6.66667H4.3335V8ZM5.66683 5.33333H4.3335V4H5.66683V5.33333ZM4.3335 2.66667H5.66683V1.33333H4.3335V2.66667ZM9.66683 5.33333H11.0002V6.66667H9.66683V5.33333ZM11.0002 8H9.66683V9.33333H11.0002V8ZM14.3335 12C14.7002 12 15.0002 11.7 15.0002 11.3333C15.0002 10.9667 14.7002 10.6667 14.3335 10.6667H13.6668V10C13.6668 9.63333 13.3668 9.33333 13.0002 9.33333C12.6335 9.33333 12.3335 9.63333 12.3335 10V10.6667H11.6668C11.3002 10.6667 11.0002 10.9667 11.0002 11.3333C11.0002 11.7 11.3002 12 11.6668 12H12.3335V12.6667C12.3335 13.0333 12.6335 13.3333 13.0002 13.3333C13.3668 13.3333 13.6668 13.0333 13.6668 12.6667V12H14.3335Z" fill="#093C5D"/>
</svg>
