<svg width="14" height="14" viewBox="0 0 14 14" fill="none" xmlns="http://www.w3.org/2000/svg">
<path fill-rule="evenodd" clip-rule="evenodd" d="M9.35583 8.61736H9.96009L13.2032 11.8758C13.5168 12.1894 13.5168 12.7018 13.2032 13.0155C12.8896 13.3291 12.3771 13.3291 12.0635 13.0155L8.81276 9.76468V9.16043L8.60624 8.94626C7.5354 9.86412 6.07447 10.3384 4.52175 10.0783C2.39536 9.71879 0.697313 7.94425 0.437252 5.80257C0.0395109 2.5671 2.76251 -0.155893 5.99798 0.241848C8.13966 0.501909 9.9142 2.19996 10.2737 4.32634C10.5338 5.87906 10.0595 7.33999 9.14166 8.41084L9.35583 8.61736ZM1.92865 5.17489C1.92865 7.07945 3.46608 8.61688 5.37064 8.61688C7.27521 8.61688 8.81263 7.07945 8.81263 5.17489C8.81263 3.27032 7.27521 1.7329 5.37064 1.7329C3.46608 1.7329 1.92865 3.27032 1.92865 5.17489Z" fill="#7F7F81"/>
</svg>
