<svg width="21" height="26" viewBox="0 0 21 26" fill="none" xmlns="http://www.w3.org/2000/svg">
<path d="M9.56213 7.65039L10.6128 9.78708L11.6635 7.65039H13.4294L11.637 10.8378L13.4779 14.0781H11.6944L10.6128 11.9017L9.53123 14.0781H7.74329L9.58862 10.8378L7.79185 7.65039H9.56213Z" fill="#093C5D"/>
<path fill-rule="evenodd" clip-rule="evenodd" d="M2.91475 2.56345H18.0862L18.0862 16.8984H18.0946V20.5937C19.3435 20.5897 20.3545 19.6954 20.3545 18.5928V2.56345C20.3545 1.45836 19.339 0.5625 18.0862 0.5625H2.91475C1.66202 0.5625 0.646484 1.45836 0.646484 2.56346V18.5928C0.646484 19.6979 1.66202 20.5938 2.91475 20.5938H11.6314V18.5928L2.91475 18.5928V2.56345Z" fill="#093C5D"/>
<path d="M18.0398 21.1992H16.9798V17.8659C16.9798 17.4992 16.6798 17.1992 16.3132 17.1992H13.6465C13.2798 17.1992 12.9798 17.4992 12.9798 17.8659V21.1992H11.9198C11.3265 21.1992 11.0265 21.9192 11.4465 22.3392L14.5065 25.3992C14.7665 25.6592 15.1865 25.6592 15.4465 25.3992L18.5065 22.3392C18.9265 21.9192 18.6332 21.1992 18.0398 21.1992Z" fill="#093C5D"/>
</svg>
