<?xml version="1.0" encoding="UTF-8"?>
<svg width="126px" height="110px" viewBox="0 0 126 110" version="1.1" xmlns="http://www.w3.org/2000/svg" xmlns:xlink="http://www.w3.org/1999/xlink">
    <title>58868BD7-4E60-43A9-8582-064742CE591C</title>
    <defs>
        <rect id="path-1" x="0" y="0" width="126" height="110"></rect>
    </defs>
    <g id="Admin-Bits" stroke="none" stroke-width="1" fill="none" fill-rule="evenodd">
        <g id="1-dashboard" transform="translate(-1294.000000, -191.000000)">
            <g id="birthday" transform="translate(1092.000000, 191.000000)">
                <g id="Group-+-Group-2-+-Fill-42-+-Fill-57-+-Fill-57-Copy-+-Fill-58-+-Fill-64-+-Fill-65-+-Fill-72-+-Fill-72-Copy-+-Fill-84-+-Fill-88-Mask" transform="translate(202.000000, 0.000000)">
                    <mask id="mask-2" fill="white">
                        <use xlink:href="#path-1"></use>
                    </mask>
                    <use id="Mask" fill-opacity="0" fill="#FFFFFF" xlink:href="#path-1"></use>
                    <g id="Group" opacity="0.900000036" mask="url(#mask-2)">
                        <g transform="translate(106.500000, 90.000000) rotate(-61.000000) translate(-106.500000, -90.000000) translate(83.000000, 59.000000)">
                            <path d="M34,33.6453166 C34,33.6453166 33.4120105,34.8723312 32.4272026,36.8177924 C31.6689048,38.3171045 30.6696207,40.2416197 29.5217426,42.3609324 C28.8341228,43.6231362 28.0898754,44.9548806 27.3175272,46.307571 C26.6018065,47.5488288 25.8507467,48.8110326 25.0852108,50.0451689 C20.2518606,57.8894325 14.7457926,64.8062088 12.2013862,60.8528675 C11.0956594,59.1306903 10.5080957,55.442106 10.2241066,51.1046157 C10.124902,49.6685604 10.0682745,48.1625456 10.0329355,46.6351659 C9.99759651,44.8505697 9.99078418,43.037487 10.0120727,41.2662963 C10.0261232,39.6903219 10.0614621,38.1566584 10.1036134,36.7063599 C10.1819553,34.2519118 10.2879722,32.0622207 10.3803645,30.3823543 L10.3803645,30.3752327 C10.5008576,28.2902714 10.5996364,27 10.5996364,27 L34,33.6453166" id="Fill-25" fill="#F2699F"></path>
                            <path d="M15,32.5 C15,34.4306223 13.3181473,36 11.2481017,36 C10.8062832,36 10.3877183,35.9335947 10,35.8012269 C10.0873197,33.2074374 10.205486,30.8934354 10.3084662,29.1182014 L10.3084662,29.1106754 C10.6088648,29.0367442 10.9249241,29 11.2481017,29 C13.3181473,29 15,30.5618518 15,32.5" id="Fill-26" fill="#FFB8D5"></path>
                            <path d="M24,37.4997787 C24,39.4329349 22.4331794,41 20.5002214,41 C18.5668206,41 17,39.4329349 17,37.4997787 C17,35.5670651 18.5668206,34 20.5002214,34 C22.4331794,34 24,35.5670651 24,37.4997787" id="Fill-27" fill="#FFB8D5"></path>
                            <path d="M15,43.5002213 C15,45.438247 13.5903236,47 11.8570498,47 C11.175269,47 10.5467584,46.7569721 10.0307517,46.3439575 C9.99775588,44.4581673 9.99139524,42.5422753 10.0112722,40.6706507 C10.5268814,40.250996 11.1689083,40 11.8570498,40 C13.5903236,40 15,41.5697211 15,43.5002213" id="Fill-29" fill="#FFB8D5"></path>
                            <path d="M13.8680563,62 C13.1438702,62 12.5099388,61.6440102 11.9959171,60.8519435 C10.8797679,59.1281815 10.286666,55.4362028 10,51.094721 C10.4409584,52.0893119 11.2553992,54.2483123 13.4000215,54.8374355 C14.0206296,55.6315988 15.0005372,56.1439893 16.1033631,56.1439893 C17.9802299,56.1439893 19.5012356,54.6596503 19.5012356,52.8289656 C19.5012356,52.5912198 19.4754486,52.3593442 19.426883,52.1358548 C20.0668314,51.2628622 20.7093585,50.2125037 21.3385624,49.057319 C21.9608897,49.7621703 22.8827764,50.2087299 23.9142581,50.2087299 C24.2928978,50.2087299 24.6577845,50.1458342 25.0011819,50.0342991 C21.0991727,56.3138077 16.762222,62 13.8680563,62 M27.2545396,46.2932618 C26.9704523,44.7632186 25.6028796,43.5975513 23.954228,43.5786825 C26.4190394,37.8262401 28.2490598,32 28.2490598,32 L34,33.6193551 C34,33.6193551 33.4064682,34.8474988 32.4123778,36.7947503 C31.796927,36.1456665 30.9098528,35.7410374 29.9299452,35.7410374 C28.055657,35.7410374 26.5320726,37.2274729 26.5320726,39.0560611 C26.5320726,40.7378926 27.8192758,42.1270494 29.4795315,42.3429913 C28.7854303,43.6063567 28.0341678,44.9393266 27.2545396,46.2932618" id="Fill-32" fill="#F24C85"></path>
                            <path d="M16.6584954,56 C15.5739645,56 14.6103128,55.4886494 14,54.6960979 C14.3457312,54.7923423 14.727388,54.8467413 15.147929,54.8467413 C15.7442942,54.8467413 16.4188504,54.7379433 17.1851226,54.4856157 C18.0646661,54.1960456 18.9936602,53.2917669 19.9268808,52 C19.9746407,52.2230359 20,52.4544408 20,52.6917042 C20,54.5186735 18.5042265,56 16.6584954,56" id="Fill-33" fill="#FF85B2"></path>
                            <path d="M24.6122775,50 C23.566146,50 22.631166,49.5285226 22,48.784341 C22.9258264,47.0157475 23.8246277,45.0120794 24.6528151,43 C26.3248819,43.0199216 27.711878,44.2506324 28,45.8660511 C27.2672721,47.1777764 26.4983654,48.5116367 25.7146386,49.8158361 C25.366364,49.9335947 24.996295,50 24.6122775,50" id="Fill-34" fill="#FF85B2"></path>
                            <path d="M30.0074551,42 L30.0074551,42 C28.3134045,41.7710384 27,40.2981264 27,38.5148936 C27,36.5760559 28.5545973,35 30.467037,35 C31.4668908,35 32.3720216,35.4290251 33,36.1172436 C32.2189738,37.7084154 31.1897383,39.7508415 30.0074551,42" id="Fill-35" fill="#FF85B2"></path>
                            <path d="M34.9861165,33.5000144 C34.6711678,34.5687344 29.0487668,33.8678207 22.4287376,31.9346694 C15.8087084,30.0015181 10.6988624,27.5687055 11.0138111,26.4999856 C11.3296322,25.4312656 16.9520331,26.1321793 23.5716262,28.0653306 C30.1912192,29.9984819 35.3019376,32.4317282 34.9861165,33.5000144" id="Fill-36" fill="#932E57"></path>
                            <path d="M29.0487447,29 C29.4951431,26.3476602 30.5649601,23.6028264 32.0529549,21.3538281 C33.4896396,19.181697 35.5424738,17.3770078 38.3358848,17.915078 C39.5852874,18.1558159 40.6401389,18.916463 40.6675043,20.2633279 C40.693587,21.5438843 39.6592595,22.4054724 38.4346569,21.7630824 C36.0098239,20.4913953 36.8671313,17.261707 38.4299535,15.737034 C40.6764836,13.5454749 43.921424,13.2443414 46.7486142,14.3732752 C46.9739514,14.4636575 47.0953854,14.119867 46.9076757,14.0003427 C44.1523198,12.2509811 40.4160845,12.9204012 38.0724926,15.0435401 C36.0872168,16.8423164 35.195275,20.2903581 37.6611561,22.1465736 C39.9517275,23.8710168 42.2846297,21.2883643 41.0634478,18.9553189 C39.81319,16.5673684 35.9713413,16.8507633 34.1211822,18.2660485 C30.8629866,20.7583187 29.5131017,25.1321453 29,28.9936648 L29.0487447,29" id="Fill-37" fill="#94D0DA"></path>
                            <path d="M0.0366734258,15.5661191 C0.0665339798,12.9436862 0.93854871,10.0348956 3.73808384,9.17754519 C5.758648,8.55875436 7.96400138,9.84800957 9.36571637,11.2005649 C10.7051137,12.4928344 11.8437096,14.2217455 11.1508582,16.1078302 C10.8769201,16.8523601 10.3714545,17.759231 9.60763013,18.0942478 C8.2989589,18.6682549 7.00024118,17.1421626 6.40259733,16.1689773 C5.23024602,14.2587782 5.60025723,12.311977 7.10020912,10.7075131 C8.23491017,9.49318449 10.1498805,8.27067429 11.8995358,8.65521166 C15.3685533,9.41825784 17.5379874,12.6448408 18.0534065,15.9446279 C18.5666619,19.2267599 17.8179842,22.4606633 17.3272325,25.6906911 C17.2804942,25.9985794 17.7119576,26.1355143 17.8071652,25.8224587 C18.8765192,22.3073651 19.4646423,18.2492685 18.54286,14.6433155 C18.0503772,12.7167531 17.0299252,10.9719094 15.4447193,9.73863388 C13.8686014,8.51224816 11.8242353,7.56489964 9.82747305,8.20694357 C7.87398695,8.8356385 6.02090156,10.4112513 5.29645855,12.3490097 C4.50450473,14.4646112 5.58943819,16.8747519 7.33822803,18.1937194 C9.10952147,19.5290502 10.7817125,18.5201241 11.606989,16.6982006 C12.5041039,14.7156585 11.7705729,12.9462699 10.3948236,11.3809917 C8.85678867,9.63141125 6.28012579,8.04804738 3.85492949,8.65348921 C2.6280502,8.95965503 1.50589924,9.85489938 0.823001348,10.8991358 C-0.0974826865,12.3068096 -0.0174217808,13.9582103 0.0197957213,15.5661191 L0.0366734258,15.5661191" id="Fill-38" fill="#FFD100"></path>
                            <path d="M20.5865663,26 C22.5379685,22.2515839 23.0959697,17.6267534 22.9870244,13.4994282 C22.8753326,9.28947099 22.010179,4.70574248 19.5135927,1.12558763 C19.3149278,0.84129885 18.8796045,1.08748266 19.0315785,1.38975357 C21.0040373,5.31328131 22.2024353,9.31515973 22.3411346,13.6702584 C22.4770873,17.9178925 21.5602075,21.8778126 20.53896,25.9811616 L20.5865663,26" id="Fill-39" fill="#F2699F"></path>
                            <path d="M25.0481933,27 C25.7805591,23.9045572 26.3007884,20.7663839 27.1011411,17.6860224 C27.9905654,14.2617228 29.0912656,10.6367577 31.2836297,7.76418337 C33.0921687,5.39473896 37.2083916,3.91257943 39.9906931,5.59708013 C43.2428792,7.56603146 39.6800186,11.9304006 36.6898835,11.3057822 C34.8051818,10.9124109 32.973837,9.18559866 32.1123821,7.56435575 C30.8933502,5.26989907 31.3873313,2.66669406 32.3903541,0.390251178 C32.5203038,0.0957463306 32.0930187,-0.167339081 31.9372511,0.132192876 C30.8890472,2.14722604 30.3059945,4.41780396 30.9798399,6.64313789 C31.5306203,8.46462733 32.8413055,9.9409219 34.4433019,10.9823715 C36.028947,12.012929 37.8340437,12.4414901 39.5302751,11.3920809 C40.7084288,10.6627311 41.8603344,9.27147845 41.9902841,7.86682019 C42.1176521,6.49232459 40.972201,5.31137272 39.7609144,4.79902645 C38.215287,4.14550218 36.3628576,4.24562545 34.7810852,4.71943055 C30.8404236,5.89912564 29.1243985,9.83786615 27.9040757,13.3501402 C26.3722177,17.7593344 25.5649802,22.3842754 25,26.9937161 L25.0481933,27" id="Fill-40" fill="#F2699F"></path>
                            <path d="M11.9005783,29.3052791 C11.9005783,29.3052791 10.8005329,38.3954925 11.0320031,38.754311 C11.2640352,39.113565 11.6691081,39.306038 11.9005783,37.6608727 C12.1326104,36.0161428 12.6539802,32.8738683 12.7697154,32.1105081 C12.8854505,31.3475833 13.5517702,27.9810472 11.9005783,29.3052791" id="Fill-45" fill="#FFFFFF"></path>
                            <path d="M11.421173,39.0127182 C11.421173,39.0127182 11.0865785,38.9953312 11.0646945,39.4607682 C11.0422347,39.9262053 10.9310871,41.7184054 11.0646945,41.8909381 C11.198302,42.0634708 11.7770756,42.0523253 11.7995354,41.7041391 C11.8219953,41.3568446 12.155438,39.4781552 11.910683,39.2021921 C11.665928,38.9266747 11.421173,39.0127182 11.421173,39.0127182" id="Fill-46" fill="#FFFFFF"></path>
                        </g>
                    </g>
                    <g id="Group-2" opacity="0.900000036" mask="url(#mask-2)">
                        <g transform="translate(108.500000, 51.500000) rotate(-7.000000) translate(-108.500000, -51.500000) translate(88.000000, 30.000000)">
                            <path d="M38.9738633,42.9678267 C38.8550993,42.9428551 38.7277541,42.9178835 38.5959467,42.8800886 C38.1583049,42.7589424 37.6575053,42.5460086 37.1055618,42.2541105 C37.0207794,42.2078792 36.9315348,42.157936 36.8422902,42.1076553 C36.5110554,41.92408 36.1630015,41.7155332 35.8019041,41.4816772 C35.5681519,41.3355594 35.3306239,41.1772933 35.0886337,41.0099158 L35.0673523,40.9933806 C34.8212432,40.8260032 34.5747908,40.6508643 34.3201004,40.467289 C34.184174,40.3670651 34.0482476,40.2668411 33.9123212,40.1666171 C33.5347479,39.8831553 33.1437879,39.5865329 32.7490521,39.277762 C32.6258259,39.177538 32.502943,39.077314 32.3755978,38.9770901 C32.2393281,38.8643803 32.0951638,38.7557199 31.9592374,38.6430101 C31.815073,38.5262509 31.6661032,38.4051047 31.5219388,38.2839586 L31.5178198,38.2799091 C30.8807507,37.7582045 30.2395625,37.2115282 29.6024933,36.6601276 C29.0931126,36.2177248 28.5837319,35.7709351 28.090827,35.3200959 C27.1400288,34.4646488 26.2228688,33.6129137 25.3822533,32.8239451 C24.8385477,32.3191132 24.333286,31.8301417 23.874706,31.3836894 C22.1419877,29.7180141 21,28.5494092 21,28.5494092 L25.3987292,25.8443741 L27.6027277,24.4874697 L30.795625,22.5255093 L32.1758272,21.6781611 L32.1844084,21.6697248 L32.7658713,21.3150601 L34.9101445,20 C34.9568263,20.1086603 35.1651782,20.5929075 35.4792505,21.356567 C35.9505307,22.4961508 36.6469818,24.2536137 37.3942338,26.2827275 C38.1754673,28.3864187 38.9996069,30.7951688 39.6703144,33.1117938 C40.0949128,34.5979433 40.4556669,36.0506848 40.6935381,37.3657449 C41.3220261,40.8222912 41.0927361,43.3143925 38.9738633,42.9678267" id="Fill-4" fill="#94D0DA"></path>
                            <path d="M27,24 C26.584798,26.496013 25.8545137,29.2339203 24.6170056,32 C24.0361645,31.5139445 23.4939726,31.0453754 23,30.617284 C23.7468483,28.8048573 24.2695316,27.0102408 24.6343057,25.3024084 L27,24" id="Fill-5" fill="#97F5FF"></path>
                            <path d="M30.8938293,22.1855557 C30.7408467,25.6455974 30.0669161,30.1741233 28,34.6897878 C28.5297527,35.1307024 29.0738132,35.5653512 29.6178737,36 C32.3238682,30.4481697 32.9724851,24.8897439 33,21 L30.8938293,22.1855557" id="Fill-6" fill="#97F5FF"></path>
                            <path d="M39.3863178,43 C39.2712943,43 39.1495639,42.9893591 39.0204559,42.9673909 C38.9044264,42.9419901 38.7800133,42.9165893 38.6512407,42.8781448 C38.2236753,42.7549166 37.7344063,42.5383233 37.1951709,42.2414086 C37.1123406,42.1943827 37.0251508,42.1435811 36.937961,42.0924363 C36.6143527,41.9057061 36.2743125,41.6935751 35.9215291,41.4557 C35.6931589,41.307071 35.4610999,41.1460849 35.2246814,40.9758309 L35.20389,40.9590114 C34.9634473,40.7887574 34.7226693,40.6106086 34.473843,40.4238784 C34.3410463,40.3219319 34.2082495,40.2199855 34.0754527,40.118039 C34.0503018,40.0984735 34.0251509,40.078908 34,40.0589993 C34.0248156,40.0782215 34.0496311,40.097787 34.0744467,40.116666 C34.2692824,39.69515 34.453387,39.2729475 34.6277666,38.8507451 C34.630114,38.8507451 34.6321261,38.8507451 34.6341381,38.8507451 C35.7598926,38.8507451 36.8896713,38.4618382 37.3568074,37.0823002 C37.6512407,36.2135242 37.3054996,34.4073214 36.6485579,32.2437911 C37.1183768,30.0050882 37.3655264,27.8841215 37.4788731,26 C38.2417839,28.138816 39.0459422,30.5872471 39.7008717,32.9419699 C39.9295773,33.775734 40.1395035,34.5992004 40.32059,35.3945201 C40.1391682,34.5995437 39.9289066,33.7760772 39.6998657,32.9405969 C39.2216632,35.8318257 38.3782695,38.9901062 36.9382964,42.0903768 C37.5764587,42.4655534 38.1579476,42.7329484 38.652582,42.8771151 C39.5315223,40.9964261 40.1928234,39.1074991 40.7005364,37.2683439 C40.7005364,37.2683439 40.7005364,37.2686872 40.7005364,37.2690304 C40.8900065,38.3540565 40.9996645,39.3453741 41,40.1877196 C41.0003352,41.9043331 40.5462775,43 39.3863178,43" id="Fill-9" fill="#7AC0CD"></path>
                            <path d="M34.6537428,28 C33.7969682,25.8757656 32.8312754,23.7211799 32,21.937437 C32.0240421,21.3918133 32.0367918,20.8688658 32.0404345,20.3713854 L32.0601054,20.359524 L34.3357308,19 C34.3852722,19.1123343 34.6063871,19.6129545 34.9396986,20.4024343 C34.9400629,20.4034809 34.9404272,20.4041786 34.9407914,20.4052252 C35.0406028,22.2374603 35.0548095,24.913598 34.6537428,28" id="Fill-13" fill="#7AC0CD"></path>
                            <path d="M33.5443529,40 C33.519164,39.9812485 33.4939751,39.9618152 33.4687862,39.9427228 C33.2546804,39.7787328 33.0361495,39.6103106 32.8155763,39.4377972 C32.6535503,39.3102873 32.4901627,39.1803908 32.3254136,39.0484487 C32.2175097,38.9615102 32.108925,38.8738897 32,38.7855874 C32.0003404,38.7849055 32.0010212,38.7835418 32.0013616,38.7828599 C32.053101,38.6683056 32.1038192,38.5540921 32.154197,38.4395378 C32.6957587,38.5936407 33.4000272,38.7416067 34.1059977,38.7426295 C33.9289945,39.1619803 33.74212,39.5813311 33.5443529,40 M36.1571925,32.1803011 C35.7919532,31.0023686 35.3317448,29.7177233 34.8320512,28.422168 C35.2068214,25.4059107 35.1935462,22.7905938 35.1002791,21 C35.1367009,21.090007 35.1748247,21.1841052 35.2139696,21.2812719 C35.4464565,21.8618852 35.725577,22.5717131 36.0332902,23.3766621 C36.3335149,24.1635414 36.6606304,25.0404278 36.998298,25.9742504 C36.9986384,25.9756141 36.9993192,25.9773188 37,25.9786826 C36.8849479,27.8500781 36.6340799,29.9567191 36.1571925,32.1803011" id="Fill-16" fill="#7DE2F0"></path>
                            <path d="M34.9643489,19.1482095 C35.3511337,19.7783837 32.5465166,22.2376503 28.6998719,24.6410089 C24.8535692,27.0443674 21.421752,28.481758 21.0356512,27.851929 C20.6488664,27.2217548 23.4534835,24.7624882 27.2997862,22.3591297 C31.1460889,19.955426 34.5775641,18.5180354 34.9643489,19.1482095" id="Fill-18" fill="#459CA0"></path>
                            <path d="M1.1158894,27.9765979 C1.57405226,24.6131934 2.71032371,20.0271139 6.90997747,20.132264 C8.55439945,20.1731363 10.3436133,20.9668271 11.1058391,22.5238164 C11.7849819,23.9117273 11.1747876,25.66679 9.61827496,26.0772595 C8.05555697,26.4894757 6.29874893,25.420159 5.24556043,24.3330262 C4.03206665,23.0803082 3.7821283,21.249789 4.55779904,19.6700928 C6.12568817,16.4771642 10.195374,15.2226996 13.4576728,15.7358738 C17.4932291,16.3706168 21.1647372,18.8645246 23.7416878,22.0061009 C23.8495922,22.1381498 24.0716064,21.9648793 23.977147,21.8220009 C21.602905,18.234323 17.55218,15.6628626 13.3201205,15.0840133 C9.67584697,14.5855112 4.75499178,16.304243 3.66112366,20.2723476 C3.16331542,22.078064 3.74696456,23.821948 5.09559742,25.0488151 C6.30392007,26.1481747 8.1076131,27.0885865 9.77030643,26.6358473 C11.2075381,26.2449407 12.1566144,24.7560718 11.9146051,23.2727922 C11.6498428,21.6518744 10.2574277,20.4522555 8.78468747,19.9485134 C6.81241533,19.2739461 4.62605807,19.6669488 3.1688313,21.2054234 C1.53785429,22.9283472 0.78424707,25.6245204 1.053491,27.9682138 C1.05728317,28.0003527 1.11037352,28.0160728 1.1158894,27.9765979" id="Fill-19" fill="#FFD100"></path>
                            <path d="M26.9214587,19.9900451 C26.1969122,17.8653292 26.1819436,15.2959594 26.5424652,13.0932632 C26.7144454,12.0423534 26.9892954,10.904172 27.5453649,9.99561792 C28.1654493,8.9832006 29.5785537,8.13437612 30.6524749,8.93043943 C31.1786071,9.32034121 31.6824456,10.1519105 31.3782953,10.8298418 C31.0977127,11.4566712 30.3534203,11.5446065 29.7795158,11.3717224 C28.7024098,11.045864 27.833591,10.0009272 27.6772164,8.85378639 C27.4017295,6.82861993 28.7097349,4.92191723 29.5976626,3.2458373 C29.6785571,3.09253124 29.4737732,2.90836486 29.3559348,3.05171599 C28.1313717,4.53666109 26.9357904,6.67929584 27.0963053,8.70977161 C27.2370743,10.4976787 29.069938,12.5739472 30.9250955,11.9418085 C32.9213404,11.2612225 31.8209852,8.47184856 30.1858988,8.12508484 C28.0428337,7.67014412 26.8074422,10.040747 26.3822687,11.8243403 C25.741483,14.5125057 25.9042273,17.4322893 26.8861072,20 L26.9214587,19.9900451" id="Fill-20" fill="#FFD100"></path>
                            <path d="M6.07083284,13.4463453 C7.19268724,12.8611398 8.7230842,12.6421039 9.9780166,12.5938361 C11.3456861,12.540908 12.6643994,12.7729263 13.9672536,13.1640619 C17.2617959,14.1523866 20.0626396,16.0191853 22.805908,17.978192 C22.9251955,18.0634097 23.0686164,17.8779948 22.9634641,17.7811263 C20.3915422,15.4116768 17.0432171,13.5072626 13.6431777,12.4963019 C12.2855063,12.0925168 10.9264559,11.9244117 9.50741695,12.0315995 C8.1800846,12.1321297 6.88550461,12.3461724 6.01222336,13.3731114 C5.97843672,13.4130571 6.02015288,13.4729758 6.07083284,13.4463453" id="Fill-21" fill="#94D0DA"></path>
                            <path d="M23,14.9865027 C22.3229086,13.4751598 21.6216207,11.9453469 21.1516348,10.3739766 C20.6307953,8.63460029 20.6049584,6.93109842 20.4482964,5.15904445 C20.4294313,4.94415316 20.0951918,4.94983624 20.0677144,5.15904445 C19.8405136,6.89167209 20.2169944,8.79940948 20.7218397,10.4766271 C21.1659887,11.9538716 21.7389122,13.8591226 22.973753,15 L23,14.9865027" id="Fill-22" fill="#94D0DA"></path>
                            <path d="M2.14917086,12.6358726 L3.17295668,12.0463816 C3.29117753,11.9851575 3.42949934,12.0838521 3.40667284,12.213326 L3.14399768,13.3454699 C3.13479894,13.3966573 3.15251503,13.4491828 3.19033208,13.4856497 L3.95110203,14.2136476 C4.04683708,14.3053165 3.99402949,14.4645661 3.86184018,14.4836359 L2.81045814,14.6335178 C2.75799125,14.6412126 2.71267893,14.6733302 2.68917103,14.7201683 L2.19209832,15.8452865 C2.13281755,16.0547197 1.98904463,16.0262823 1.92976385,15.9088525 L1.45960598,14.7201683 C1.43609808,14.6733302 1.39078577,14.6412126 1.33831887,14.6335178 L0.0988736848,14.5187644 C-0.0333156315,14.4996946 -0.0234355022,14.3902942 0.0722995439,14.2986253 L0.958444935,13.4856497 C0.996261982,13.4491828 1.01363738,13.3966573 1.00477933,13.3454699 L0.69883602,12.1852231 C0.676350208,12.0560838 0.814331325,11.9573892 0.932892876,12.0186133 L1.99926545,12.6358726 C2.04628124,12.6599608 2.10249577,12.6599608 2.14917086,12.6358726" id="Fill-23" fill="#FFD100"></path>
                            <path d="M21.7766368,1.43272839 L22.893438,1.76734316 C23.0171185,1.81121035 23.0385119,1.98021801 22.9292051,2.05401009 L21.9280618,2.65012768 C21.8846065,2.67937247 21.8581991,2.72868054 21.8571962,2.78138917 L21.8374742,3.84168274 C21.8351343,3.97498456 21.683375,4.04775648 21.5810879,3.96478289 L20.7654654,3.30405473 C20.7246843,3.27106933 20.6708665,3.2605276 20.6210601,3.27583011 L19.467489,3.69749914 C19.2752828,3.79951584 19.1997375,3.67539552 19.2451984,3.55059509 L19.7954094,2.3814837 C19.8131258,2.33183557 19.8064403,2.2764065 19.7766902,2.23287937 L19.0279219,1.25113866 C18.9527108,1.14198079 19.0392871,1.07328955 19.1703216,1.07873044 L20.3576541,1.15762335 C20.4098005,1.16000374 20.4596069,1.13585979 20.4910284,1.09369289 L21.1301556,0.0640043228 C21.209378,-0.0424331013 21.3738396,-0.0104678685 21.4089381,0.118073174 L21.6760211,1.32357052 C21.6897262,1.37457887 21.7274989,1.4157256 21.7766368,1.43272839" id="Fill-24" fill="#FFD100"></path>
                            <path d="M22.0714596,28.3895492 C22.0714596,28.3895492 25.12579,31.616807 25.6692587,31.9294685 C26.2127274,32.2417599 26.1938241,31.5028429 24.7888031,29.9939278 C23.3834185,28.4850126 21.6221437,27.3786722 22.0714596,28.3895492" id="Fill-43" fill="#FFFFFF"></path>
                            <path d="M27.0581289,33.0648028 C27.0581289,33.0648028 26.862239,33.4052794 27.189663,33.6976887 C27.5170869,33.990098 27.800478,34.0937988 27.9528995,33.9042 C28.1058855,33.7150463 27.8495916,33.3710092 27.7050735,33.1818555 C27.5605553,32.9922568 27.1021618,32.9468599 27.0581289,33.0648028" id="Fill-44" fill="#FFFFFF"></path>
                            <path d="M23,26.1475248 C23,26.1475248 20.7511213,22.9631568 16,24.3496704 L16.8279962,26.8020182 C16.8279962,26.8020182 20.5255033,25.8611239 21.9934808,27 L23,26.1475248" id="Fill-47" fill="#FFD100"></path>
                            <path d="M32.0017736,16.4449668 C32.0017736,16.4449668 31.7991528,12.5979194 35.7253512,13.0345404 L36,14.2892471 C36,14.2892471 34.7761974,15.5501252 33.6264422,17 L32.0017736,16.4449668" id="Fill-48" fill="#F2699F"></path>
                            <path d="M37,25.9739826 C36.7552757,29.9620326 35.8938053,35.0198809 33.5442478,40 C33.0445882,39.6219228 32.5258679,39.2128221 32,38.7856528 C35.1456773,31.8309409 35.2913547,24.6757698 35.1000681,21 C35.5646698,22.1488911 36.2566372,23.9237063 37,25.9739826" id="Fill-7" fill="#97F5FF"></path>
                        </g>
                    </g>
                    <path d="M46.2597379,43.6296143 L49.5547379,42.5036143 C49.9317379,42.3936143 50.2697379,42.7636143 50.1287379,43.1296143 L48.6957379,46.2906143 C48.6387379,46.4356143 48.6577379,46.5996143 48.7457379,46.7276143 L50.4987379,49.3066143 C50.7187379,49.6316143 50.4717379,50.0676143 50.0807379,50.0456143 L46.9677379,49.8686143 C46.8117379,49.8596143 46.6617379,49.9266143 46.5657379,50.0506143 L44.4657379,53.0536143 C44.1687379,53.6336143 43.7727379,53.4656143 43.6727379,53.0866143 L43.0307379,49.3296143 C42.9907379,49.1786143 42.8797379,49.0576143 42.7327379,49.0046143 L39.2367379,47.9406143 C38.8687379,47.8076143 38.9627379,47.4936143 39.2927379,47.2816143 L42.3267379,45.4196143 C42.4577379,45.3356143 42.5387379,45.1916143 42.5437379,45.0356143 L42.3567379,41.4596143 C42.3687379,41.0666143 42.8257379,40.8596143 43.1287379,41.1076143 L45.8277379,43.5416143 C45.9487379,43.6396143 46.1097379,43.6726143 46.2597379,43.6296143" id="Fill-42" fill="#1875BA" mask="url(#mask-2)"></path>
                    <polyline id="Fill-57" fill="#F2699F" mask="url(#mask-2)" points="22.91 40 17 47.292 24.699 52.051 28.821 45.106 22.91 40"></polyline>
                    <polyline id="Fill-57-Copy" fill="#F2699F" mask="url(#mask-2)" points="72.91 12 67 19.292 74.699 24.051 78.821 17.106 72.91 12"></polyline>
                    <polyline id="Fill-58" fill="#FFD100" mask="url(#mask-2)" points="44.91 19 39 26.292 46.699 31.052 50.821 24.107 44.91 19"></polyline>
                    <polyline id="Fill-64" fill="#1875BA" mask="url(#mask-2)" points="41.537 87 37 93.598 41.537 97.721 50.196 95.66 41.537 87"></polyline>
                    <polyline id="Fill-65" fill="#FFD100" mask="url(#mask-2)" points="4.536 90 -2.66453526e-14 96.598 4.536 100.721 13.195 98.659 4.536 90"></polyline>
                    <path d="M38.3088243,70.9007394 L41.3128243,69.1387394 C41.6598243,68.9567394 42.0658243,69.2517394 41.9988243,69.6377394 L41.2278243,73.0217394 C41.2008243,73.1747394 41.2518243,73.3317394 41.3638243,73.4407394 L43.5968243,75.6177394 C43.8778243,75.8907394 43.7228243,76.3677394 43.3348243,76.4237394 L40.2488243,76.8727394 C40.0948243,76.8947394 39.9608243,76.9917394 39.8928243,77.1317394 L38.4338243,80.4947394 C38.2588243,81.1207394 37.8378243,81.0357394 37.6638243,80.6837394 L36.2838243,77.1317394 C36.2148243,76.9917394 36.0818243,76.8947394 35.9278243,76.8727394 L32.2898243,76.5287394 C31.9018243,76.4717394 31.9318243,76.1447394 32.2118243,75.8717394 L34.8128243,73.4407394 C34.9238243,73.3317394 34.9748243,73.1747394 34.9478243,73.0217394 L34.0508243,69.5537394 C33.9848243,69.1677394 34.3908243,68.8737394 34.7368243,69.0547394 L37.8678243,70.9007394 C38.0058243,70.9727394 38.1708243,70.9727394 38.3088243,70.9007394" id="Fill-72" fill="#FFD100" mask="url(#mask-2)"></path>
                    <path d="M20.3088243,13.9007394 L23.3128243,12.1387394 C23.6598243,11.9567394 24.0658243,12.2517394 23.9988243,12.6377394 L23.2278243,16.0217394 C23.2008243,16.1747394 23.2518243,16.3317394 23.3638243,16.4407394 L25.5968243,18.6177394 C25.8778243,18.8907394 25.7228243,19.3677394 25.3348243,19.4237394 L22.2488243,19.8727394 C22.0948243,19.8947394 21.9608243,19.9917394 21.8928243,20.1317394 L20.4338243,23.4947394 C20.2588243,24.1207394 19.8378243,24.0357394 19.6638243,23.6837394 L18.2838243,20.1317394 C18.2148243,19.9917394 18.0818243,19.8947394 17.9278243,19.8727394 L14.2898243,19.5287394 C13.9018243,19.4717394 13.9318243,19.1447394 14.2118243,18.8717394 L16.8128243,16.4407394 C16.9238243,16.3317394 16.9748243,16.1747394 16.9478243,16.0217394 L16.0508243,12.5537394 C15.9848243,12.1677394 16.3908243,11.8737394 16.7368243,12.0547394 L19.8678243,13.9007394 C20.0058243,13.9727394 20.1708243,13.9727394 20.3088243,13.9007394" id="Fill-72-Copy" fill="#FFD100" mask="url(#mask-2)"></path>
                    <path d="M8.71682891,69.1196419 C11.1658289,66.9096419 13.4528289,67.5656419 15.5138289,69.9916419 C16.5078289,71.1596419 19.0138289,75.0126419 16.6688289,75.9946419 C15.3758289,76.5366419 13.6358289,75.5516419 13.0328289,74.4336419 C12.3628289,73.1906419 12.5098289,71.5826419 12.8808289,70.2736419 C13.9108289,66.6476419 16.5228289,65.0676419 20.0228289,64.4676419 C20.6718289,64.3556419 20.5468289,63.4536419 20.0228289,63.2746419 C13.5418289,61.0586419 7.14982891,72.8606419 12.8298289,76.8666419 C14.7388289,78.2126419 18.3918289,78.2316419 19.0898289,75.5436419 C19.7758289,72.8986419 17.6248289,69.7576419 15.7728289,68.1046419 C13.4598289,66.0386419 9.66482891,65.2656419 8.04882891,68.6046419 C7.83982891,69.0356419 8.34682891,69.4526419 8.71682891,69.1196419" id="Fill-84" fill="#E56464" mask="url(#mask-2)"></path>
                    <path d="M57.1819439,52.7658972 C57.1129439,50.0718972 61.7619439,50.1698972 63.2399439,51.4348972 C64.2709439,52.3158972 64.5999439,53.8818972 64.5409439,55.1828972 C64.4759439,56.6158972 63.8679439,57.8958972 63.1039439,55.9458972 C61.7719439,52.5488972 62.3539439,47.5998972 66.9629439,47.7458972 C68.4439439,47.7928972 69.9129439,48.4888972 70.7609439,49.7268972 C71.4359439,50.7138972 72.4599439,54.5168972 70.0969439,53.0858972 C66.7779439,51.0788972 70.2979439,44.2388972 72.6229439,42.8538972 C73.0729439,42.5848972 72.7759439,41.8898972 72.2699439,42.0148972 C66.4389439,43.4538972 64.9079439,56.6838972 72.4819439,54.7638972 C72.7399439,54.6978972 73.0269439,54.4508972 73.0709439,54.1738972 C73.5939439,50.8508972 72.3669439,47.5368972 68.9649439,46.4048972 C66.0999439,45.4518972 62.7379439,46.5088972 61.3559439,49.2948972 C60.5239439,50.9738972 60.5669439,52.9368972 60.9559439,54.7268972 C61.2519439,56.0868972 61.9829439,59.0068972 63.8209439,59.0708972 C67.6049439,59.2018972 66.0789439,51.8918972 64.4609439,50.3768972 C62.8979439,48.9118972 60.2469439,48.7368972 58.2979439,49.4278972 C56.8139439,49.9548972 55.3249439,51.3798972 56.3259439,52.9968972 C56.5589439,53.3728972 57.1939439,53.2348972 57.1819439,52.7658972" id="Fill-88" fill="#F2699F" mask="url(#mask-2)"></path>
                </g>
            </g>
        </g>
    </g>
</svg>