<svg width="26" height="24" viewBox="0 0 26 24" fill="none" xmlns="http://www.w3.org/2000/svg">
<path d="M0.337891 0.695312H12.141C12.1403 4.33328 12.141 7.97125 12.1403 11.6092C8.2066 11.6092 4.27225 11.6092 0.337891 11.6092V0.695312Z" fill="#F25022"/>
<path d="M13.3461 0.695312H25.1492C25.1492 4.33328 25.1499 7.97125 25.1485 11.6092C21.2148 11.6086 17.2805 11.6092 13.3468 11.6092C13.3454 7.97125 13.3461 4.33328 13.3461 0.695312Z" fill="#80BA01"/>
<path d="M0.337891 12.7236C4.27225 12.7249 8.20661 12.723 12.141 12.7249C12.1417 16.3629 12.141 20.0002 12.141 23.6382H0.337891V12.7236Z" fill="#02A4EF"/>
<path d="M13.3467 12.7245C17.2803 12.7231 21.2147 12.7238 25.149 12.7238C25.149 16.3618 25.149 19.9997 25.149 23.6377H13.3459C13.3467 19.9997 13.3452 16.3618 13.3467 12.7245Z" fill="#FFB902"/>
</svg>
