<svg width="93" height="93" viewBox="0 0 93 93" fill="none" xmlns="http://www.w3.org/2000/svg">
<path fill-rule="evenodd" clip-rule="evenodd" d="M46.5 84C67.2107 84 84 67.2107 84 46.5C84 25.7893 67.2107 9 46.5 9C25.7893 9 9 25.7893 9 46.5C9 67.2107 25.7893 84 46.5 84ZM46.5 93C72.1812 93 93 72.1812 93 46.5C93 20.8188 72.1812 0 46.5 0C20.8188 0 0 20.8188 0 46.5C0 72.1812 20.8188 93 46.5 93Z" fill="#093C5D"/>
<path d="M51.7666 22L50.6387 56.5557H42.4355L41.2734 22H51.7666ZM41 67.2539C41 65.7956 41.5013 64.5879 42.5039 63.6309C43.5293 62.651 44.8737 62.1611 46.5371 62.1611C48.2233 62.1611 49.5677 62.651 50.5703 63.6309C51.5729 64.5879 52.0742 65.7956 52.0742 67.2539C52.0742 68.6667 51.5729 69.863 50.5703 70.8428C49.5677 71.8226 48.2233 72.3125 46.5371 72.3125C44.8737 72.3125 43.5293 71.8226 42.5039 70.8428C41.5013 69.863 41 68.6667 41 67.2539Z" fill="#093C5D"/>
</svg>
