<svg width="81" height="97" viewBox="0 0 81 97" fill="none" xmlns="http://www.w3.org/2000/svg">
<path d="M15.6698 38.745L8.56105 31.5858C4.02355 37.4342 1.20022 44.19 0.34314 51.1979H10.5273C11.2331 46.8117 12.9977 42.5262 15.6698 38.745ZM10.5273 61.2812H0.34314C1.20022 68.2892 3.97314 75.045 8.51064 80.8933L15.6194 73.7342C12.9977 69.9529 11.2331 65.7179 10.5273 61.2812ZM15.6194 88.1029C21.4677 92.6404 28.274 95.3629 35.2819 96.22V85.9854C30.8956 85.2292 26.6606 83.515 22.8794 80.7925L15.6194 88.1029ZM45.3652 16.2592V0.78125L22.4256 23.7208L45.3652 46.1562V26.4433C59.6836 28.8633 70.5736 41.2658 70.5736 56.2396C70.5736 71.2133 59.6836 83.6158 45.3652 86.0358V96.22C65.2798 93.7496 80.6569 76.8096 80.6569 56.2396C80.6569 35.6696 65.2798 18.7296 45.3652 16.2592Z" fill="#093C5D"/>
</svg>
    