<svg width="79" height="79" viewBox="0 0 79 79" fill="none" xmlns="http://www.w3.org/2000/svg">
<path d="M75.4738 15.8211L36.7238 54.5711C35.2126 56.0824 32.7713 56.0824 31.2601 54.5711L20.2938 43.6049C18.7826 42.0936 18.7826 39.6524 20.2938 38.1411C21.8051 36.6299 24.2463 36.6299 25.7576 38.1411L33.9726 46.3561L69.9713 10.3574C71.4826 8.84612 73.9238 8.84612 75.4351 10.3574C76.9851 11.8686 76.9851 14.3099 75.4738 15.8211ZM54.0838 3.61487C47.5351 0.941118 40.0951 0.0111179 32.3451 1.40612C16.5738 4.23487 3.98007 16.9449 1.30632 32.7161C-3.11118 58.8724 18.6663 81.2699 44.6676 77.8986C60.0126 75.9224 72.8776 64.4911 76.9076 49.5724C78.4576 43.8761 78.6126 38.3736 77.7213 33.2199C77.2176 30.1199 73.3813 28.9186 71.1338 31.1274C70.2426 32.0186 69.8551 33.3361 70.0876 34.5761C70.9401 39.7299 70.5526 45.2324 68.0726 51.0836C63.5776 61.5849 53.8126 69.2961 42.4588 70.3424C22.6963 72.1636 6.30507 55.4236 8.74632 35.5449C10.4126 21.8274 21.4563 10.6674 35.1351 8.76862C41.8388 7.83862 48.1938 9.11737 53.6188 11.9074C55.1301 12.6824 56.9513 12.4111 58.1526 11.2099C60.0126 9.34987 59.5476 6.21112 57.2226 5.00987C56.1763 4.54487 55.1301 4.04112 54.0838 3.61487Z" fill="#093C5D"/>
</svg>
