<svg width="16" height="15" viewBox="0 0 16 15" fill="none" xmlns="http://www.w3.org/2000/svg">
<path fill-rule="evenodd" clip-rule="evenodd" d="M8 0C3.86 0 0.5 3.36 0.5 7.5C0.5 11.64 3.86 15 8 15C12.14 15 15.5 11.64 15.5 7.5C15.5 3.36 12.14 0 8 0ZM4.25 4.5C4.25 4.0875 4.5875 3.75 5 3.75H8.75C9.1625 3.75 9.5 4.0875 9.5 4.5C9.5 4.9125 9.1625 5.25 8.75 5.25H5C4.5875 5.25 4.25 4.9125 4.25 4.5ZM5.75 9.75C6.1625 9.75 6.5 9.4125 6.5 9C6.5 8.5875 6.1625 8.25 5.75 8.25H5C4.5875 8.25 4.25 8.5875 4.25 9C4.25 9.4125 4.5875 9.75 5 9.75H5.75ZM5 7.5C4.5875 7.5 4.25 7.1625 4.25 6.75C4.25 6.3375 4.5875 6 5 6H8.75C9.1625 6 9.5 6.3375 9.5 6.75C9.5 7.1625 9.1625 7.5 8.75 7.5H5ZM11.75 9.75H12.5C12.9125 9.75 13.25 9.4125 13.25 9C13.25 8.5875 12.9125 8.25 12.5 8.25H11.75V7.5C11.75 7.0875 11.4125 6.75 11 6.75C10.5875 6.75 10.25 7.0875 10.25 7.5V8.25H9.5C9.0875 8.25 8.75 8.5875 8.75 9C8.75 9.4125 9.0875 9.75 9.5 9.75H10.25V10.5C10.25 10.9125 10.5875 11.25 11 11.25C11.4125 11.25 11.75 10.9125 11.75 10.5V9.75Z" fill="#093C5D"/>
</svg>
