<svg width="19" height="19" viewBox="0 0 19 19" fill="none" xmlns="http://www.w3.org/2000/svg">
<path fill-rule="evenodd" clip-rule="evenodd" d="M15.0585 0.773594C14.6785 0.393594 14.1685 0.183594 13.6385 0.183594H2.46851C1.35851 0.183594 0.468506 1.08359 0.468506 2.18359V16.1836C0.468506 17.2836 1.36851 18.1836 2.46851 18.1836H16.4685C17.5685 18.1836 18.4685 17.2836 18.4685 16.1836V5.01359C18.4685 4.48359 18.2585 3.97359 17.8785 3.60359L15.0585 0.773594ZM9.46851 16.1836C7.80851 16.1836 6.46851 14.8436 6.46851 13.1836C6.46851 11.5236 7.80851 10.1836 9.46851 10.1836C11.1285 10.1836 12.4685 11.5236 12.4685 13.1836C12.4685 14.8436 11.1285 16.1836 9.46851 16.1836ZM4.46851 6.18359H10.4685C11.5685 6.18359 12.4685 5.28359 12.4685 4.18359C12.4685 3.08359 11.5685 2.18359 10.4685 2.18359H4.46851C3.36851 2.18359 2.46851 3.08359 2.46851 4.18359C2.46851 5.28359 3.36851 6.18359 4.46851 6.18359Z" fill="#093C5D"/>
</svg>
