<svg width="12" height="14" viewBox="0 0 12 14" fill="none" xmlns="http://www.w3.org/2000/svg">
<path fill-rule="evenodd" clip-rule="evenodd" d="M10.94 3.9387L7.71996 0.718698C7.47329 0.472031 7.13329 0.332031 6.77996 0.332031H1.99996C1.26663 0.332031 0.673293 0.932031 0.673293 1.66536L0.666626 12.332C0.666626 13.0654 1.25996 13.6654 1.99329 13.6654H9.99996C10.7333 13.6654 11.3333 13.0654 11.3333 12.332V4.88536C11.3333 4.53203 11.1933 4.19203 10.94 3.9387ZM7.86663 8.9987H6.66663V10.9987C6.66663 11.3654 6.36663 11.6654 5.99996 11.6654C5.63329 11.6654 5.33329 11.3654 5.33329 10.9987V8.9987H4.13996C3.83996 8.9987 3.69329 8.6387 3.90663 8.43203L5.77329 6.57203C5.90663 6.44536 6.11329 6.44536 6.24663 6.57203L8.10663 8.43203C8.30663 8.6387 8.15996 8.9987 7.86663 8.9987ZM6.66663 4.33203C6.66663 4.6987 6.96663 4.9987 7.33329 4.9987H10.3333L6.66663 1.33203V4.33203Z" fill="#093C5D"/>
</svg>
