<svg width="19" height="23" viewBox="0 0 19 23" fill="none" xmlns="http://www.w3.org/2000/svg">
<path d="M9.39648 6.44141C10.5065 6.44141 11.3965 5.54141 11.3965 4.44141C11.3965 4.06141 11.2965 3.71141 11.1065 3.41141L9.39648 0.441406L7.68648 3.41141C7.49648 3.71141 7.39648 4.06141 7.39648 4.44141C7.39648 5.54141 8.29648 6.44141 9.39648 6.44141ZM15.3965 9.44141H10.3965V7.44141H8.39648V9.44141H3.39648C1.73648 9.44141 0.396484 10.7814 0.396484 12.4414V21.4414C0.396484 21.9914 0.846484 22.4414 1.39648 22.4414H17.3965C17.9465 22.4414 18.3965 21.9914 18.3965 21.4414V12.4414C18.3965 10.7814 17.0565 9.44141 15.3965 9.44141ZM16.3965 20.4414H2.39648V17.4414C3.29648 17.4314 4.15648 17.0714 4.79648 16.4314L5.88648 15.3614L6.95648 16.4314C8.26648 17.7414 10.5465 17.7314 11.8465 16.4314L12.9265 15.3614L13.9965 16.4314C14.6365 17.0714 15.4965 17.4314 16.3965 17.4414V20.4414ZM16.3965 15.9414C15.8865 15.9314 15.4065 15.7414 15.0465 15.3714L12.9165 13.2414L10.7765 15.3714C10.0365 16.1114 8.74648 16.1114 8.00648 15.3714L5.87648 13.2414L3.73648 15.3714C3.38648 15.7314 2.90648 15.9314 2.39648 15.9414V12.4414C2.39648 11.8914 2.84648 11.4414 3.39648 11.4414H15.3965C15.9465 11.4414 16.3965 11.8914 16.3965 12.4414V15.9414Z" fill="#093C5D"/>
</svg>
