<svg width="127" height="121" viewBox="0 0 127 121" fill="none" xmlns="http://www.w3.org/2000/svg">
<path d="M0.906494 120.01L82.5732 90.8434L30.0732 38.3434L0.906494 120.01Z" fill="#9C54E5"/>
<path d="M73.9982 64.7684L106.606 32.16C109.465 29.3017 114.073 29.3017 116.931 32.16L120.373 35.6017L126.556 29.4184L123.115 25.9767C116.873 19.735 106.665 19.735 100.423 25.9767L67.8148 58.585L73.9982 64.7684Z" fill="#9C54E5"/>
<path d="M47.9232 31.81L44.4815 35.2517L50.6648 41.435L54.1065 37.9934C60.3482 31.7517 60.3482 21.5434 54.1065 15.3017L50.6648 11.86L44.4815 18.1017L47.9232 21.5434C50.7232 24.3434 50.7232 29.01 47.9232 31.81Z" fill="#9C54E5"/>
<path d="M88.7565 60.9767L79.4815 70.2517L85.6648 76.435L94.9398 67.16C97.7982 64.3017 102.406 64.3017 105.265 67.16L114.656 76.5517L120.84 70.3684L111.448 60.9767C105.148 54.735 94.9982 54.735 88.7565 60.9767Z" fill="#9C54E5"/>
<path d="M77.0898 25.9767L56.1482 46.9184L62.3315 53.1017L83.2732 32.16C89.5148 25.9184 89.5148 15.71 83.2732 9.46836L73.9982 0.193359L67.8148 6.37669L77.0898 15.6517C79.8898 18.51 79.8898 23.1767 77.0898 25.9767Z" fill="#9C54E5"/>
</svg>
