<svg width="165" height="164" viewBox="0 0 165 164" fill="none" xmlns="http://www.w3.org/2000/svg">
<path d="M82.3907 0.0908203C37.3107 0.0908203 0.723999 36.6775 0.723999 81.7575C0.723999 126.837 37.3107 163.424 82.3907 163.424C127.471 163.424 164.057 126.837 164.057 81.7575C164.057 36.6775 127.471 0.0908203 82.3907 0.0908203ZM82.3907 147.091C46.3757 147.091 17.0573 117.772 17.0573 81.7575C17.0573 45.7425 46.3757 16.4242 82.3907 16.4242C118.406 16.4242 147.724 45.7425 147.724 81.7575C147.724 117.772 118.406 147.091 82.3907 147.091ZM114.077 51.4592L66.0573 99.4792L50.704 84.1258C47.519 80.9408 42.374 80.9408 39.189 84.1258C36.004 87.3108 36.004 92.4558 39.189 95.6408L60.3407 116.792C63.5257 119.978 68.6707 119.978 71.8557 116.792L125.674 62.9742C128.859 59.7892 128.859 54.6442 125.674 51.4592C122.489 48.2742 117.262 48.2742 114.077 51.4592Z" fill="#367EEA"/>
</svg>
