<svg width="36" height="36" viewBox="0 0 36 36" fill="none" xmlns="http://www.w3.org/2000/svg">
<path d="M17.9153 0.304688C8.25528 0.304688 0.415283 8.14469 0.415283 17.8047C0.415283 27.4647 8.25528 35.3047 17.9153 35.3047C27.5753 35.3047 35.4153 27.4647 35.4153 17.8047C35.4153 8.14469 27.5753 0.304688 17.9153 0.304688ZM17.9153 31.8047C10.1978 31.8047 3.91528 25.5222 3.91528 17.8047C3.91528 10.0872 10.1978 3.80469 17.9153 3.80469C25.6328 3.80469 31.9153 10.0872 31.9153 17.8047C31.9153 25.5222 25.6328 31.8047 17.9153 31.8047ZM24.7053 11.3122L14.4153 21.6022L11.1253 18.3122C10.4428 17.6297 9.34028 17.6297 8.65778 18.3122C7.97528 18.9947 7.97528 20.0972 8.65778 20.7797L13.1903 25.3122C13.8728 25.9947 14.9753 25.9947 15.6578 25.3122L27.1903 13.7797C27.8728 13.0972 27.8728 11.9947 27.1903 11.3122C26.5078 10.6297 25.3878 10.6297 24.7053 11.3122Z" fill="#42DBBE"/>
</svg>
