<svg width="19" height="19" viewBox="0 0 19 19" fill="none" xmlns="http://www.w3.org/2000/svg">
<path fill-rule="evenodd" clip-rule="evenodd" d="M12.8792 12.1257H13.7186L18.2236 16.6519C18.6592 17.0875 18.6592 17.7994 18.2236 18.235C17.7879 18.6707 17.0761 18.6707 16.6404 18.235L12.1248 13.7194V12.88L11.8379 12.5825C10.3504 13.8575 8.32106 14.5163 6.16419 14.155C3.21044 13.6557 0.851685 11.1907 0.490435 8.21566C-0.0620648 3.72129 3.72043 -0.0612103 8.21481 0.49129C11.1898 0.85254 13.6548 3.21129 14.1542 6.16504C14.5154 8.32191 13.8567 10.3513 12.5817 11.8388L12.8792 12.1257ZM2.56234 7.34375C2.56234 9.98938 4.69796 12.125 7.34359 12.125C9.98921 12.125 12.1248 9.98938 12.1248 7.34375C12.1248 4.69812 9.98921 2.5625 7.34359 2.5625C4.69796 2.5625 2.56234 4.69812 2.56234 7.34375Z" fill="#7F7F81"/>
</svg>
