<svg width="88" height="37" viewBox="0 0 88 37" fill="none" xmlns="http://www.w3.org/2000/svg">
<circle cx="12.2382" cy="8.05372" r="7.55372" fill="#005CE5"/>
<path d="M0.907593 27.6484C0.907593 22.1256 5.38475 17.6484 10.9076 17.6484H14.3854C19.9082 17.6484 24.3854 22.1256 24.3854 27.6484V34.1244C24.3854 35.229 23.49 36.1244 22.3854 36.1244H2.90759C1.80302 36.1244 0.907593 35.229 0.907593 34.1244V27.6484Z" fill="#005CE5"/>
<circle cx="43.6958" cy="8.05372" r="7.55372" fill="#005CE5"/>
<path d="M32.3652 27.6484C32.3652 22.1256 36.8424 17.6484 42.3652 17.6484H45.843C51.3659 17.6484 55.843 22.1256 55.843 27.6484V34.1244C55.843 35.229 54.9476 36.1244 53.843 36.1244H34.3652C33.2607 36.1244 32.3652 35.229 32.3652 34.1244V27.6484Z" fill="#005CE5"/>
<circle cx="75.1533" cy="8.05372" r="7.55372" fill="#005CE5"/>
<path d="M63.8228 27.6484C63.8228 22.1256 68.2999 17.6484 73.8228 17.6484H77.3005C82.8234 17.6484 87.3005 22.1256 87.3005 27.6484V34.1244C87.3005 35.229 86.4051 36.1244 85.3005 36.1244H65.8228C64.7182 36.1244 63.8228 35.229 63.8228 34.1244V27.6484Z" fill="#005CE5"/>
</svg>
