<?xml version="1.0" encoding="UTF-8"?>
<svg width="20px" height="20px" viewBox="0 0 20 20" version="1.1" xmlns="http://www.w3.org/2000/svg" xmlns:xlink="http://www.w3.org/1999/xlink">
    <title>icono-subir-archivo-azul</title>
    <g id="Admin-Bits" stroke="none" stroke-width="1" fill="none" fill-rule="evenodd">
        <g id="5" transform="translate(-966.000000, -428.000000)">
            <g id="Group-11" transform="translate(276.000000, 240.000000)">
                <g id="Group" transform="translate(457.000000, 178.000000)">
                    <g id="icono-subir-archivo-azul" transform="translate(233.000000, 10.000000)">
                        <rect id="Rectangle" x="0" y="0" width="20" height="20"></rect>
                        <path d="M16.175,6.175 L12.15,2.15 C11.8416667,1.84166667 11.4166667,1.66666667 10.975,1.66666667 L5,1.66666667 C4.08333333,1.66666667 3.34166667,2.41666667 3.34166667,3.33333333 L3.33333333,16.6666667 C3.33333333,17.5833333 4.075,18.3333333 4.99166667,18.3333333 L15,18.3333333 C15.9166667,18.3333333 16.6666667,17.5833333 16.6666667,16.6666667 L16.6666667,7.35833333 C16.6666667,6.91666667 16.4916667,6.49166667 16.175,6.175 Z M12.3333333,12.5 L10.8333333,12.5 L10.8333333,15 C10.8333333,15.4583333 10.4583333,15.8333333 10,15.8333333 C9.54166667,15.8333333 9.16666667,15.4583333 9.16666667,15 L9.16666667,12.5 L7.675,12.5 C7.3,12.5 7.11666667,12.05 7.38333333,11.7916667 L9.71666667,9.46666667 C9.88333333,9.30833333 10.1416667,9.30833333 10.3083333,9.46666667 L12.6333333,11.7916667 C12.8833333,12.05 12.7,12.5 12.3333333,12.5 Z M11.6666667,7.5 C11.2083333,7.5 10.8333333,7.125 10.8333333,6.66666667 L10.8333333,2.91666667 L15.4166667,7.5 L11.6666667,7.5 Z" id="Shape" fill="#093C5D" fill-rule="nonzero"></path>
                    </g>
                </g>
            </g>
        </g>
    </g>
</svg>