<?xml version="1.0" encoding="UTF-8"?>
<svg width="18px" height="18px" viewBox="0 0 18 18" version="1.1" xmlns="http://www.w3.org/2000/svg" xmlns:xlink="http://www.w3.org/1999/xlink">
    <title>btn-permisos</title>
    <g id="Admin-Bits" stroke="none" stroke-width="1" fill="none" fill-rule="evenodd">
        <g id="5-col-administradores" transform="translate(-986.000000, -479.000000)">
            <g id="colaboradores" transform="translate(270.000000, 229.000000)">
                <g id="declinados-list" transform="translate(27.000000, 140.000000)">
                    <g id="Group-6" transform="translate(610.000000, 40.000000)">
                        <g id="btn-permisos" transform="translate(79.000000, 70.000000)">
                            <g id="Group">
                                <rect id="Rectangle" x="0" y="0" width="18" height="18"></rect>
                                <rect id="Rectangle" x="0" y="0" width="18" height="18"></rect>
                            </g>
                            <g id="Group" transform="translate(2.250000, 2.250000)" fill="#2186C6" fill-rule="nonzero">
                                <path d="M10.5,6 C10.755,6 11.0025,6.03 11.25,6.0675 L11.25,3.435 C11.25,2.835 10.8975,2.295 10.35,2.0625 L6.225,0.2625 C5.8425,0.0975 5.4075,0.0975 5.025,0.2625 L0.9,2.0625 C0.3525,2.3025 0,2.8425 0,3.435 L0,6.135 C0,9.54 2.4,12.7275 5.625,13.5 C6.0375,13.4025 6.435,13.26 6.825,13.0875 C6.3075,12.3525 6,11.46 6,10.5 C6,8.0175 8.0175,6 10.5,6 Z" id="Path"></path>
                                <path d="M10.5,7.5 C8.8425,7.5 7.5,8.8425 7.5,10.5 C7.5,12.1575 8.8425,13.5 10.5,13.5 C12.1575,13.5 13.5,12.1575 13.5,10.5 C13.5,8.8425 12.1575,7.5 10.5,7.5 Z M10.5,8.535 C10.965,8.535 11.34,8.9175 11.34,9.375 C11.34,9.8325 10.9575,10.215 10.5,10.215 C10.0425,10.215 9.66,9.8325 9.66,9.375 C9.66,8.9175 10.035,8.535 10.5,8.535 Z M10.5,12.5625 C9.8025,12.5625 9.195,12.2175 8.82,11.685 C8.8575,11.145 9.9525,10.875 10.5,10.875 C11.0475,10.875 12.1425,11.145 12.18,11.685 C11.805,12.2175 11.1975,12.5625 10.5,12.5625 Z" id="Shape"></path>
                            </g>
                        </g>
                    </g>
                </g>
            </g>
        </g>
    </g>
</svg>