<svg width="16" height="16" viewBox="0 0 16 16" fill="none" xmlns="http://www.w3.org/2000/svg">
<path fill-rule="evenodd" clip-rule="evenodd" d="M9.99967 6H11.0597C11.653 6 11.9463 6.72 11.5263 7.14L8.46634 10.2C8.20634 10.46 7.78634 10.46 7.52634 10.2L4.46634 7.14C4.04634 6.72 4.34634 6 4.93967 6H5.99967V2.66667C5.99967 2.3 6.29967 2 6.66634 2H9.33301C9.69967 2 9.99967 2.3 9.99967 2.66667V6ZM3.99967 13.3333C3.63301 13.3333 3.33301 13.0333 3.33301 12.6667C3.33301 12.3 3.63301 12 3.99967 12H11.9997C12.3663 12 12.6663 12.3 12.6663 12.6667C12.6663 13.0333 12.3663 13.3333 11.9997 13.3333H3.99967Z" fill="#093C5D"/>
</svg>
