<?xml version="1.0" encoding="UTF-8"?>
<svg width="24px" height="24px" viewBox="0 0 24 24" version="1.1" xmlns="http://www.w3.org/2000/svg" xmlns:xlink="http://www.w3.org/1999/xlink">
    <title>post_add_black_24dp</title>
    <g id="Admin-Bits" stroke="none" stroke-width="1" fill="none" fill-rule="evenodd">
        <g id="noticias" transform="translate(-1012.000000, -194.000000)">
            <g id="post_add_black_24dp" transform="translate(1012.000000, 194.000000)">
                <rect id="Rectangle" x="0" y="0" width="24" height="24"></rect>
                <g id="Group" transform="translate(3.000000, 2.000000)" fill="#093C5D" fill-rule="nonzero">
                    <path d="M14,17.22 L2,17.22 L2,5 L9,5 L9,3 L2,3 C0.9,3 0,3.9 0,5 L0,17 C0,18.1 0.9,19 2,19 L14,19 C15.1,19 16,18.1 16,17 L16,10 L14,10 L14,17.22 Z" id="Path"></path>
                    <path d="M16,0 L14,0 L14,3 L11,3 C11.01,3.01 11,5 11,5 L14,5 L14,7.99 C14.01,8 16,7.99 16,7.99 L16,5 L19,5 L19,3 L16,3 L16,0 Z" id="Path"></path>
                    <rect id="Rectangle" x="4" y="7" width="8" height="2"></rect>
                    <polygon id="Path" points="4 10 4 12 12 12 12 10 9 10"></polygon>
                    <rect id="Rectangle" x="4" y="13" width="8" height="2"></rect>
                </g>
            </g>
        </g>
    </g>
</svg>