<?xml version="1.0" encoding="UTF-8"?>
<svg width="16px" height="16px" viewBox="0 0 16 16" version="1.1" xmlns="http://www.w3.org/2000/svg" xmlns:xlink="http://www.w3.org/1999/xlink">
    <title>btn-convertir</title>
    <g id="Admin-Bits" stroke="none" stroke-width="1" fill="none" fill-rule="evenodd">
        <g id="1-col-nuevo-ingreso" transform="translate(-1259.000000, -416.000000)">
            <g id="colaboradores" transform="translate(77.000000, 229.000000)">
                <g id="colaborador-list" transform="translate(16.000000, 143.000000)">
                    <g id="Group-6" transform="translate(1087.000000, 34.000000)">
                        <g id="btn-convertir" transform="translate(79.000000, 10.000000)">
                            <polygon id="Path" points="0 0 16 0 16 16 0 16"></polygon>
                            <path d="M8,13.3333333 L7.42666667,12.76 C6.64,11.9733333 6.64666667,10.6933333 7.44,9.92 L8,9.37333333 C7.74,9.34666667 7.54666667,9.33333333 7.33333333,9.33333333 C5.55333333,9.33333333 2,10.2266667 2,12 L2,13.3333333 L8,13.3333333 Z M7.33333333,8 C8.80666667,8 10,6.80666667 10,5.33333333 C10,3.86 8.80666667,2.66666667 7.33333333,2.66666667 C5.86,2.66666667 4.66666667,3.86 4.66666667,5.33333333 C4.66666667,6.80666667 5.86,8 7.33333333,8" id="Shape" fill="#11CA73" fill-rule="nonzero"></path>
                            <path d="M10.7866667,13.1866667 C10.5266667,13.4466667 10.1,13.4466667 9.84,13.1866667 L8.46,11.7933333 C8.20666667,11.5333333 8.20666667,11.12 8.46,10.8666667 L8.46666667,10.86 C8.72666667,10.6 9.14666667,10.6 9.4,10.86 L10.3133333,11.7733333 L13.2666667,8.8 C13.5266667,8.54 13.9466667,8.54 14.2066667,8.8 L14.2133333,8.80666667 C14.4666667,9.06666667 14.4666667,9.48 14.2133333,9.73333333 L10.7866667,13.1866667 Z" id="Path" fill="#11CA73" fill-rule="nonzero"></path>
                        </g>
                    </g>
                </g>
            </g>
        </g>
    </g>
</svg>