<?xml version="1.0" encoding="UTF-8"?>
<svg width="24px" height="24px" viewBox="0 0 24 24" version="1.1" xmlns="http://www.w3.org/2000/svg" xmlns:xlink="http://www.w3.org/1999/xlink">
    <title>icono-cumpleaños</title>
    <g id="Admin-Bits" stroke="none" stroke-width="1" fill="none" fill-rule="evenodd">
        <g id="calendario" transform="translate(-561.000000, -503.000000)">
            <g id="colaboradores" transform="translate(270.000000, 168.000000)">
                <g id="declinados-list" transform="translate(27.000000, 320.000000)">
                    <g id="icono-cumpleaños" transform="translate(264.000000, 15.000000)">
                        <polygon id="Path" points="0 0 24 0 24 24 0 24"></polygon>
                        <path d="M12,6 C13.11,6 14,5.1 14,4 C14,3.62 13.9,3.27 13.71,2.97 L12,0 L10.29,2.97 C10.1,3.27 10,3.62 10,4 C10,5.1 10.9,6 12,6 Z M16.6,15.99 L15.53,14.92 L14.45,15.99 C13.15,17.29 10.87,17.3 9.56,15.99 L8.49,14.92 L7.4,15.99 C6.75,16.64 5.88,17 4.96,17 C4.23,17 3.56,16.77 3,16.39 L3,21 C3,21.55 3.45,22 4,22 L20,22 C20.55,22 21,21.55 21,21 L21,16.39 C20.44,16.77 19.77,17 19.04,17 C18.12,17 17.25,16.64 16.6,15.99 L16.6,15.99 Z M18,9 L13,9 L13,7 L11,7 L11,9 L6,9 C4.34,9 3,10.34 3,12 L3,13.54 C3,14.62 3.88,15.5 4.96,15.5 C5.48,15.5 5.98,15.3 6.34,14.93 L8.48,12.8 L10.61,14.93 C11.35,15.67 12.64,15.67 13.38,14.93 L15.52,12.8 L17.65,14.93 C18.02,15.3 18.51,15.5 19.03,15.5 C20.11,15.5 20.9900556,14.62 20.9900556,13.54 L20.9900556,12 C21,10.34 19.66,9 18,9 Z" id="Shape" fill="#848484" fill-rule="nonzero"></path>
                    </g>
                </g>
            </g>
        </g>
    </g>
</svg>