<?xml version="1.0" encoding="UTF-8"?>
<svg width="123px" height="123px" viewBox="0 0 123 123" version="1.1" xmlns="http://www.w3.org/2000/svg" xmlns:xlink="http://www.w3.org/1999/xlink">
    <title>icono-cargar-imagen-noticia</title>
    <g id="Admin-Bits" stroke="none" stroke-width="1" fill="none" fill-rule="evenodd">
        <g id="crear-noticias" transform="translate(-604.000000, -581.000000)">
            <g id="Group-11" transform="translate(354.000000, 235.000000)">
                <g id="Group-3" transform="translate(32.000000, 40.000000)">
                    <g id="icono-cargar-imagen-noticia" transform="translate(219.000000, 307.000000)">
                        <rect id="Rectangle" stroke="#C7CCDC" stroke-width="0.8" fill="#FFFFFF" x="0" y="0" width="121" height="121" rx="4"></rect>
                        <path d="M39,20 L82,20 C84.209139,20 86,21.790861 86,24 L86,67 C86,69.209139 84.209139,71 82,71 L39,71 C36.790861,71 35,69.209139 35,67 L35,24 C35,21.790861 36.790861,20 39,20 Z" id="Rectangle" stroke="#C7CCDC" stroke-width="0.8" fill="#FFFFFF" stroke-linecap="round" stroke-linejoin="round" stroke-dasharray="0,2"></path>
                        <g id="add_photo_alternate_black_24dp" opacity="0.6" transform="translate(45.000000, 30.000000)">
                            <polygon id="Path" points="0 0 32 0 32 32 0 32"></polygon>
                            <path d="M28.0266667,6.66666667 L25.3333333,6.66666667 L25.3333333,3.97333333 C25.3333333,3.25333333 24.7466667,2.66666667 24.0266667,2.66666667 L23.9866667,2.66666667 C23.2533333,2.66666667 22.6666667,3.25333333 22.6666667,3.97333333 L22.6666667,6.66666667 L19.9866667,6.66666667 C19.2666667,6.66666667 18.68,7.25333333 18.6666667,7.97333333 L18.6666667,8.01333333 C18.6666667,8.74666667 19.2533333,9.33333333 19.9866667,9.33333333 L22.6666667,9.33333333 L22.6666667,12.0133333 C22.6666667,12.7333333 23.2533333,13.3333333 23.9866667,13.32 L24.0266667,13.32 C24.7466667,13.32 25.3333333,12.7333333 25.3333333,12.0133333 L25.3333333,9.33333333 L28.0266667,9.33333333 C28.7466667,9.33333333 29.3333333,8.74666667 29.3333333,8.02666667 L29.3333333,7.97333333 C29.3333333,7.25333333 28.7466667,6.66666667 28.0266667,6.66666667 Z M21.3333333,12.0133333 L21.3333333,10.6666667 L19.9866667,10.6666667 C19.28,10.6666667 18.6133333,10.3866667 18.1066667,9.89333333 C17.6133333,9.38666667 17.3333333,8.72 17.3333333,7.97333333 C17.3333333,7.49333333 17.4666667,7.05333333 17.6933333,6.66666667 L6.66666667,6.66666667 C5.2,6.66666667 4,7.86666667 4,9.33333333 L4,25.3333333 C4,26.8 5.2,28 6.66666667,28 L22.6666667,28 C24.1333333,28 25.3333333,26.8 25.3333333,25.3333333 L25.3333333,14.2933333 C24.9333333,14.52 24.48,14.6666667 23.9733333,14.6666667 C22.52,14.6533333 21.3333333,13.4666667 21.3333333,12.0133333 Z M21.28,25.3333333 L8,25.3333333 C7.45333333,25.3333333 7.13333333,24.7066667 7.46666667,24.2666667 L10.1066667,20.76 C10.3866667,20.3866667 10.9333333,20.4133333 11.2,20.7866667 L13.3333333,24 L16.8133333,19.36 C17.08,19.0133333 17.6,19 17.8666667,19.3466667 L21.8,24.2533333 C22.1466667,24.6933333 21.84,25.3333333 21.28,25.3333333 L21.28,25.3333333 Z" id="Shape" fill="#093C5D" fill-rule="nonzero"></path>
                        </g>
                        <text id="Cargar" opacity="0.6" font-family="Roboto-Regular, Roboto" font-size="13" font-weight="normal" fill="#093C5D">
                            <tspan x="34" y="95">Cargar</tspan>
                        </text>
                    </g>
                </g>
            </g>
        </g>
    </g>
</svg>