<?xml version="1.0" encoding="UTF-8"?>
<svg width="24px" height="24px" viewBox="0 0 24 24" version="1.1" xmlns="http://www.w3.org/2000/svg" xmlns:xlink="http://www.w3.org/1999/xlink">
    <title>icono-agregar</title>
    <g id="Admin-Bits" stroke="none" stroke-width="1" fill="none" fill-rule="evenodd">
        <g id="3-estructura-de-equipo" transform="translate(-605.000000, -216.000000)">
            <g id="sedes" transform="translate(270.000000, 191.000000)">
                <g id="btn-add" transform="translate(195.000000, 17.000000)">
                    <g id="icono-agregar" transform="translate(140.000000, 8.000000)">
                        <rect id="Rectangle" stroke="#FABB00" fill="#FABB00" x="0.5" y="0.5" width="23" height="23" rx="4"></rect>
                        <g id="add_black_24dp" transform="translate(4.000000, 4.000000)">
                            <polygon id="Path" points="0 0 16 0 16 16 0 16"></polygon>
                            <path d="M12,8.66666667 L8.66666667,8.66666667 L8.66666667,12 C8.66666667,12.3666667 8.36666667,12.6666667 8,12.6666667 C7.63333333,12.6666667 7.33333333,12.3666667 7.33333333,12 L7.33333333,8.66666667 L4,8.66666667 C3.63333333,8.66666667 3.33333333,8.36666667 3.33333333,8 C3.33333333,7.63333333 3.63333333,7.33333333 4,7.33333333 L7.33333333,7.33333333 L7.33333333,4 C7.33333333,3.63333333 7.63333333,3.33333333 8,3.33333333 C8.36666667,3.33333333 8.66666667,3.63333333 8.66666667,4 L8.66666667,7.33333333 L12,7.33333333 C12.3666667,7.33333333 12.6666667,7.63333333 12.6666667,8 C12.6666667,8.36666667 12.3666667,8.66666667 12,8.66666667 Z" id="Path" fill="#093C5D" fill-rule="nonzero"></path>
                        </g>
                    </g>
                </g>
            </g>
        </g>
    </g>
</svg>