<?xml version="1.0" encoding="UTF-8"?>
<svg width="24px" height="24px" viewBox="0 0 24 24" version="1.1" xmlns="http://www.w3.org/2000/svg" xmlns:xlink="http://www.w3.org/1999/xlink">
    <title>icono-tarea</title>
    <g id="Admin-Bits" stroke="none" stroke-width="1" fill="none" fill-rule="evenodd">
        <g id="calendario" transform="translate(-561.000000, -377.000000)">
            <g id="colaboradores" transform="translate(270.000000, 168.000000)">
                <g id="declinados-list" transform="translate(27.000000, 194.000000)">
                    <g id="icono-tarea" transform="translate(264.000000, 15.000000)">
                        <polygon id="Path" points="0 0 24 0 24 24 0 24"></polygon>
                        <path d="M14,2 L6,2 C4.9,2 4.01,2.9 4.01,4 L4,20 C4,21.1 4.89,22 5.99,22 L18,22 C19.1,22 20,21.1 20,20 L20,8 L14,2 Z M10.94,18 L7.4,14.46 L8.81,13.05 L10.93,15.17 L15.17,10.93 L16.58,12.34 L10.94,18 Z M13,9 L13,3.5 L18.5,9 L13,9 Z" id="Shape" fill="#848484" fill-rule="nonzero"></path>
                    </g>
                </g>
            </g>
        </g>
    </g>
</svg>