<?xml version="1.0" encoding="UTF-8"?>
<svg width="16px" height="16px" viewBox="0 0 16 16" version="1.1" xmlns="http://www.w3.org/2000/svg" xmlns:xlink="http://www.w3.org/1999/xlink">
    <title>btn-ver</title>
    <g id="Admin-Bits" stroke="none" stroke-width="1" fill="none" fill-rule="evenodd">
        <g id="1-col-nuevo-ingreso" transform="translate(-1259.000000, -451.000000)">
            <g id="colaboradores" transform="translate(77.000000, 229.000000)">
                <g id="colaborador-list" transform="translate(16.000000, 143.000000)">
                    <g id="Group-6" transform="translate(1087.000000, 34.000000)">
                        <g id="btn-ver" transform="translate(79.000000, 45.000000)">
                            <polygon id="Path" points="0 0 16 0 16 16 0 16"></polygon>
                            <path d="M8,2.66666667 C4.66666667,2.66666667 1.82,4.74 0.666666667,7.66666667 C1.82,10.5933333 4.66666667,12.6666667 8,12.6666667 C11.3333333,12.6666667 14.18,10.5933333 15.3333333,7.66666667 C14.18,4.74 11.3333333,2.66666667 8,2.66666667 Z M8,11 C6.16,11 4.66666667,9.50666667 4.66666667,7.66666667 C4.66666667,5.82666667 6.16,4.33333333 8,4.33333333 C9.84,4.33333333 11.3333333,5.82666667 11.3333333,7.66666667 C11.3333333,9.50666667 9.84,11 8,11 Z M8,5.66666667 C6.89333333,5.66666667 6,6.56 6,7.66666667 C6,8.77333333 6.89333333,9.66666667 8,9.66666667 C9.10666667,9.66666667 10,8.77333333 10,7.66666667 C10,6.56 9.10666667,5.66666667 8,5.66666667 Z" id="Shape" fill="#2186C6" fill-rule="nonzero"></path>
                        </g>
                    </g>
                </g>
            </g>
        </g>
    </g>
</svg>