<svg width="14" height="12" viewBox="0 0 14 12" fill="none" xmlns="http://www.w3.org/2000/svg">
<path fill-rule="evenodd" clip-rule="evenodd" d="M6.99969 2.0013C4.79303 2.0013 2.99969 3.79464 2.99969 6.0013H4.19303C4.49303 6.0013 4.63969 6.3613 4.43303 6.56797L2.57303 8.42797C2.43969 8.5613 2.23303 8.5613 2.09969 8.42797L0.239695 6.56797C0.0263615 6.3613 0.173028 6.0013 0.473028 6.0013H1.66636C1.66636 3.05464 4.05303 0.667969 6.99969 0.667969C7.69303 0.667969 8.35969 0.801302 8.96636 1.04797C9.41303 1.22797 9.53303 1.8013 9.19303 2.1413C9.01303 2.3213 8.73969 2.39464 8.49969 2.29464C8.03969 2.1013 7.52636 2.0013 6.99969 2.0013ZM9.57303 5.42797L11.433 3.56797C11.5597 3.4413 11.773 3.4413 11.8997 3.57464L13.7597 5.43464C13.973 5.6413 13.8264 6.0013 13.5264 6.0013H12.333C12.333 8.94797 9.94636 11.3346 6.99969 11.3346C6.30636 11.3346 5.63969 11.2013 5.03303 10.9546C4.58636 10.7746 4.46636 10.2013 4.80636 9.8613C4.98636 9.6813 5.25969 9.60797 5.49969 9.70797C5.95969 9.9013 6.47303 10.0013 6.99969 10.0013C9.20636 10.0013 10.9997 8.20797 10.9997 6.0013H9.80636C9.50636 6.0013 9.35969 5.6413 9.57303 5.42797Z" fill="#093C5D"/>
</svg>
