<?xml version="1.0" encoding="UTF-8"?>
<svg width="18px" height="18px" viewBox="0 0 18 18" version="1.1" xmlns="http://www.w3.org/2000/svg" xmlns:xlink="http://www.w3.org/1999/xlink">
    <title>btn-eliminar-admin</title>
    <g id="Admin-Bits" stroke="none" stroke-width="1" fill="none" fill-rule="evenodd">
        <g id="5-col-administradores" transform="translate(-985.000000, -415.000000)">
            <g id="colaboradores" transform="translate(270.000000, 229.000000)">
                <g id="declinados-list" transform="translate(27.000000, 140.000000)">
                    <g id="Group-6" transform="translate(610.000000, 40.000000)">
                        <g id="btn-eliminar-admin" transform="translate(78.000000, 6.000000)">
                            <g id="Group">
                                <rect id="Rectangle" x="0" y="0" width="18" height="18"></rect>
                                <rect id="Rectangle" x="0" y="0" width="18" height="18"></rect>
                            </g>
                            <path d="M10.5,6 C10.5,4.3425 9.1575,3 7.5,3 C5.8425,3 4.5,4.3425 4.5,6 C4.5,7.6575 5.8425,9 7.5,9 C9.1575,9 10.5,7.6575 10.5,6 Z M1.5,13.5 L1.5,14.25 C1.5,14.6625 1.8375,15 2.25,15 L12.75,15 C13.1625,15 13.5,14.6625 13.5,14.25 L13.5,13.5 C13.5,11.505 9.5025,10.5 7.5,10.5 C5.4975,10.5 1.5,11.505 1.5,13.5 Z M13.5,7.5 L16.5,7.5 C16.9125,7.5 17.25,7.8375 17.25,8.25 L17.25,8.25 C17.25,8.6625 16.9125,9 16.5,9 L13.5,9 C13.0875,9 12.75,8.6625 12.75,8.25 L12.75,8.25 C12.75,7.8375 13.0875,7.5 13.5,7.5 Z" id="Shape" fill="#D31313" fill-rule="nonzero" opacity="0.6"></path>
                        </g>
                    </g>
                </g>
            </g>
        </g>
    </g>
</svg>