<svg width="16" height="16" viewBox="0 0 16 16" fill="none" xmlns="http://www.w3.org/2000/svg">
<path d="M0 6C0 2.68629 2.68629 0 6 0H10C13.3137 0 16 2.68629 16 6V10C16 13.3137 13.3137 16 10 16H6C2.68629 16 0 13.3137 0 10V6Z" fill="white"/>
<path fill-rule="evenodd" clip-rule="evenodd" d="M10 0.7H6C3.07289 0.7 0.7 3.07289 0.7 6V10C0.7 12.9271 3.07289 15.3 6 15.3H10C12.9271 15.3 15.3 12.9271 15.3 10V6C15.3 3.07289 12.9271 0.7 10 0.7ZM6 0C2.68629 0 0 2.68629 0 6V10C0 13.3137 2.68629 16 6 16H10C13.3137 16 16 13.3137 16 10V6C16 2.68629 13.3137 0 10 0H6Z" fill="#C7CCDC"/>
<path d="M5.08341 8.41615H9.73758L7.70425 10.4495C7.54175 10.612 7.54175 10.8786 7.70425 11.0411C7.86675 11.2036 8.12925 11.2036 8.29175 11.0411L11.0376 8.29531C11.2001 8.13281 11.2001 7.87031 11.0376 7.70781L8.29591 4.95781C8.13341 4.79531 7.87091 4.79531 7.70842 4.95781C7.54592 5.12031 7.54592 5.38281 7.70842 5.54531L9.73758 7.58281H5.08341C4.85425 7.58281 4.66675 7.77031 4.66675 7.99948C4.66675 8.22865 4.85425 8.41615 5.08341 8.41615Z" fill="#FABB00"/>
</svg>
