<?xml version="1.0" encoding="UTF-8"?>
<svg width="11px" height="14px" viewBox="0 0 11 14" version="1.1" xmlns="http://www.w3.org/2000/svg" xmlns:xlink="http://www.w3.org/1999/xlink">
    <title>icono-eliminar</title>
    <g id="Admin-Bits" stroke="none" stroke-width="1" fill="none" fill-rule="evenodd" opacity="0.4">
        <g id="3-estructura-de-equipo" transform="translate(-573.000000, -287.000000)" fill="#D31313" fill-rule="nonzero">
            <g id="sedes" transform="translate(270.000000, 191.000000)">
                <g id="line1" transform="translate(20.000000, 78.000000)">
                    <g id="delete_black_24dp" transform="translate(276.000000, 13.000000)">
                        <path d="M7.77777778,17.4444444 C7.77777778,18.3 8.47777778,19 9.33333333,19 L15.5555556,19 C16.4111111,19 17.1111111,18.3 17.1111111,17.4444444 L17.1111111,9.66666667 C17.1111111,8.81111111 16.4111111,8.11111111 15.5555556,8.11111111 L9.33333333,8.11111111 C8.47777778,8.11111111 7.77777778,8.81111111 7.77777778,9.66666667 L7.77777778,17.4444444 Z M17.1111111,5.77777778 L15.1666667,5.77777778 L14.6144444,5.22555556 C14.4744444,5.08555556 14.2722222,5 14.07,5 L10.8188889,5 C10.6166667,5 10.4144444,5.08555556 10.2744444,5.22555556 L9.72222222,5.77777778 L7.77777778,5.77777778 C7.35,5.77777778 7,6.12777778 7,6.55555556 C7,6.98333333 7.35,7.33333333 7.77777778,7.33333333 L17.1111111,7.33333333 C17.5388889,7.33333333 17.8888889,6.98333333 17.8888889,6.55555556 C17.8888889,6.12777778 17.5388889,5.77777778 17.1111111,5.77777778 Z" id="icono-eliminar"></path>
                    </g>
                </g>
            </g>
        </g>
    </g>
</svg>