<?xml version="1.0" encoding="UTF-8"?>
<svg width="14px" height="14px" viewBox="0 0 14 14" version="1.1" xmlns="http://www.w3.org/2000/svg" xmlns:xlink="http://www.w3.org/1999/xlink">
    <title>btn-declinar</title>
    <g id="Admin-Bits" stroke="none" stroke-width="1" fill="none" fill-rule="evenodd">
        <g id="1-col-nuevo-ingreso" transform="translate(-1260.000000, -491.000000)" fill="#EEA1A1" fill-rule="nonzero">
            <g id="colaboradores" transform="translate(77.000000, 229.000000)">
                <g id="colaborador-list" transform="translate(16.000000, 143.000000)">
                    <g id="Group-6" transform="translate(1087.000000, 34.000000)">
                        <g id="btn-declinar" transform="translate(80.000000, 85.000000)">
                            <path d="M8.78666667,5.96 C8.92,5.66666667 9,5.34666667 9,5 C9,3.71333333 7.95333333,2.66666667 6.66666667,2.66666667 C6.32,2.66666667 6,2.74666667 5.70666667,2.88 L8.78666667,5.96 Z" id="Path"></path>
                            <path d="M6.66666667,0 C2.98666667,0 0,2.98666667 0,6.66666667 C0,10.3466667 2.98666667,13.3333333 6.66666667,13.3333333 C10.3466667,13.3333333 13.3333333,10.3466667 13.3333333,6.66666667 C13.3333333,2.98666667 10.3466667,0 6.66666667,0 Z M6.66666667,8.66666667 C5.12,8.66666667 3.7,9.2 2.57333333,10.08 C1.8,9.15333333 1.33333333,7.96666667 1.33333333,6.66666667 C1.33333333,5.43333333 1.75333333,4.3 2.46,3.4 L4.36666667,5.30666667 C4.50666667,6.34666667 5.32,7.16666667 6.36,7.3 L7.82666667,8.76666667 C7.44666667,8.7 7.06,8.66666667 6.66666667,8.66666667 Z M10.8733333,9.93333333 L3.4,2.46 C4.3,1.75333333 5.43333333,1.33333333 6.66666667,1.33333333 C9.61333333,1.33333333 12,3.72 12,6.66666667 C12,7.9 11.58,9.02666667 10.8733333,9.93333333 Z" id="Shape"></path>
                        </g>
                    </g>
                </g>
            </g>
        </g>
    </g>
</svg>