<?xml version="1.0" encoding="UTF-8"?>
<svg width="16px" height="16px" viewBox="0 0 16 16" version="1.1" xmlns="http://www.w3.org/2000/svg" xmlns:xlink="http://www.w3.org/1999/xlink">
    <title>icono-calendario</title>
    <g id="Admin-Bits" stroke="none" stroke-width="1" fill="none" fill-rule="evenodd">
        <g id="nomina-1" transform="translate(-1232.000000, -226.000000)">
            <g id="Group-11" transform="translate(339.518000, 102.000000)">
                <g id="Group-4" transform="translate(35.482000, 45.000000)">
                    <g id="Group" transform="translate(0.000000, 65.000000)">
                        <g id="Group-12" transform="translate(615.000000, 1.000000)">
                            <g id="icono-calendario" transform="translate(242.000000, 13.000000)">
                                <polygon id="Path" points="0 0 16 0 16 16 0 16"></polygon>
                                <path d="M11.3333333,8 L8,8 L8,11.3333333 L11.3333333,11.3333333 L11.3333333,8 Z M10.6666667,0.666666667 L10.6666667,2 L5.33333333,2 L5.33333333,0.666666667 L4,0.666666667 L4,2 L3.33333333,2 C2.59333333,2 2.00666667,2.6 2.00666667,3.33333333 L2,12.6666667 C2,13.4 2.59333333,14 3.33333333,14 L12.6666667,14 C13.4,14 14,13.4 14,12.6666667 L14,3.33333333 C14,2.6 13.4,2 12.6666667,2 L12,2 L12,0.666666667 L10.6666667,0.666666667 Z M12.6666667,12.6666667 L3.33333333,12.6666667 L3.33333333,5.33333333 L12.6666667,5.33333333 L12.6666667,12.6666667 Z" id="Shape" fill="#093C5D" fill-rule="nonzero"></path>
                            </g>
                        </g>
                    </g>
                </g>
            </g>
        </g>
    </g>
</svg>