<?xml version="1.0" encoding="UTF-8"?>
<svg width="128px" height="43px" viewBox="0 0 128 43" version="1.1" xmlns="http://www.w3.org/2000/svg" xmlns:xlink="http://www.w3.org/1999/xlink">
    <title>logo-bits@1x</title>
    <g id="Admin-Bits" stroke="none" stroke-width="1" fill="none" fill-rule="evenodd">
        <g id="1-nuevo-ingreso" transform="translate(-223.000000, -44.000000)" fill-rule="nonzero">
            <g id="logo-bits" transform="translate(223.846000, 44.878000)">
                <g id="Group-18" transform="translate(-0.000000, 0.000000)">
                    <path d="M46.9557335,41.7801925 C48.2255687,41.7801925 49.177945,41.6126767 49.8128626,41.2776453 C50.4477802,40.9426138 50.765239,40.2353251 50.765239,39.1557792 L50.765239,39.1557792 L50.765239,12.7999688 C50.765239,11.7204229 50.4477802,11.0131342 49.8128626,10.6781027 C49.177945,10.3430713 48.2255687,10.1755555 46.9557335,10.1755555 C45.6858983,10.1755555 44.7434425,10.3430713 44.1283661,10.6781027 C43.5132897,11.0131342 43.2057515,11.7204229 43.2057515,12.7999688 L43.2057515,12.7999688 L43.2057515,39.1557792 C43.2057515,40.2353251 43.5132897,40.9426138 44.1283661,41.2776453 C44.7434425,41.6126767 45.6858983,41.7801925 46.9557335,41.7801925 Z M63.38327,41.7801925 C64.5919247,41.7801925 65.4984157,41.6094498 66.1027431,41.2679645 C66.7070704,40.9264792 67.0092341,40.2055658 67.0092341,39.1052243 L67.0092341,39.1052243 L67.0092341,15.1443391 L78.9635842,15.1443391 C79.8323048,15.1443391 80.389419,14.9071965 80.634927,14.4329114 C80.880435,13.9586262 81.003189,13.2471985 81.003189,12.2986283 C81.003189,11.350058 80.880435,10.6291446 80.634927,10.135888 C80.389419,9.64263149 79.8323048,9.39600321 78.9635842,9.39600321 L78.9635842,9.39600321 L67.0092341,9.39600321 L67.0092341,2.73703986 C67.0092341,1.63669834 66.7070704,0.915784932 66.1027431,0.574299632 C65.4984157,0.232814332 64.5919247,0.0620716822 63.38327,0.0620716822 C62.1746154,0.0620716822 61.277567,0.232814332 60.6921249,0.574299632 C60.1066828,0.915784932 59.8139617,1.63669834 59.8139617,2.73703986 L59.8139617,2.73703986 L59.8139617,9.39600321 L56.5845875,9.39600321 C55.715867,9.39600321 55.1587527,9.64263149 54.9132447,10.135888 C54.6677367,10.6291446 54.5449827,11.350058 54.5449827,12.2986283 C54.5449827,13.2471985 54.6677367,13.9586262 54.9132447,14.4329114 C55.1587527,14.9071965 55.715867,15.1443391 56.5845875,15.1443391 L56.5845875,15.1443391 L59.8139617,15.1443391 L59.8139617,39.1052243 C59.8139617,40.2055658 60.1066828,40.9264792 60.6921249,41.2679645 C61.277567,41.6094498 62.1746154,41.7801925 63.38327,41.7801925 Z M110.665772,41.7801925 C113.438624,41.7801925 115.823277,41.5844116 117.81973,41.1928497 C119.816183,40.8012878 121.442923,40.2419137 122.699949,39.5147274 C123.956976,38.787541 124.88126,37.8925425 125.472801,36.8297317 C126.064343,35.7669209 126.360114,34.5642665 126.360114,33.2217687 L126.360114,33.2217687 L126.360114,31.4317715 C126.360114,28.7467758 125.214002,26.6584458 122.921778,25.1667815 C120.629553,23.6751173 116.895446,22.9292851 111.719456,22.9292851 L111.719456,22.9292851 L99.4634505,22.9292851 C97.245169,22.9292851 95.6184292,22.6682439 94.5832311,22.1461614 C93.5480331,21.6240789 93.0304341,20.9341841 93.0304341,20.0764772 L93.0304341,20.0764772 L93.0304341,18.6221045 C93.0304341,17.7643975 93.5295474,17.0838257 94.5277741,16.580389 C95.5260008,16.0769523 97.0787979,15.825234 99.1861653,15.825234 L99.1861653,15.825234 L106.839237,15.825234 C107.689578,15.825234 108.244148,15.5921614 108.502948,15.1260163 C108.761747,14.6598713 108.891147,13.9606536 108.891147,13.0283635 C108.891147,12.0587817 108.761747,11.3409182 108.502948,10.8747731 C108.244148,10.4086281 107.689578,10.1755555 106.839237,10.1755555 L106.839237,10.1755555 L99.2416223,10.1755555 C94.879002,10.1755555 91.5885511,10.9213877 89.3702696,12.4130519 C87.1519881,13.9047162 86.0428473,15.9557546 86.0428473,18.5661671 L86.0428473,18.5661671 L86.0428473,20.188352 C86.0428473,22.7614729 87.1704737,24.7845426 89.4257266,26.2575611 C91.6809795,27.7305795 95.0453731,28.4670888 99.5189075,28.4670888 L99.5189075,28.4670888 L111.941284,28.4670888 C113.383167,28.4670888 114.575493,28.5323491 115.518263,28.6628697 C116.461033,28.7933903 117.209703,28.9891713 117.764273,29.2502125 C118.318843,29.5112538 118.707043,29.8095866 118.928871,30.1452111 C119.150699,30.4808356 119.261613,30.8723974 119.261613,31.3198967 L119.261613,31.3198967 L119.261613,33.3336435 C119.261613,33.7811428 119.150699,34.1727046 118.928871,34.5083291 C118.707043,34.8439536 118.309601,35.1329635 117.736545,35.375359 C117.163488,35.6177544 116.38709,35.8042125 115.407349,35.9347331 C114.427608,36.0652537 113.19831,36.130514 111.719456,36.130514 L111.719456,36.130514 L88.2056718,36.130514 C87.3553305,36.130514 86.8007601,36.3635866 86.5419606,36.8297317 C86.2831611,37.2958767 86.1537614,37.9950944 86.1537614,38.9273845 C86.1537614,39.8969663 86.2831611,40.6148298 86.5419606,41.0809749 C86.8007601,41.5471199 87.3553305,41.7801925 88.2056718,41.7801925 L88.2056718,41.7801925 L110.665772,41.7801925 Z" id="its" fill="#FFFFFF"></path>
                    <path d="M24.7909904,41.7801925 C26.2740193,41.7801925 27.736825,41.6171562 29.1794077,41.2910835 C30.6219903,40.9650108 31.8960469,40.3704077 33.0015775,39.5072742 C34.1071081,38.6441406 35.0036665,37.4357537 35.6912526,35.8821133 C36.3788387,34.328473 36.7226318,32.3240851 36.7226318,29.8689497 C36.7226318,27.2987299 36.3518746,25.3518842 35.6103601,24.0284128 C34.8688457,22.7049414 33.8779128,21.717133 32.6375614,21.0649877 C34.0666619,20.0675889 35.0441128,18.8208405 35.5699139,17.3247424 C36.095715,15.8286442 36.3586156,14.0640157 36.3586156,12.0308567 C36.3586156,9.61408279 36.0687509,7.63846604 35.4890214,6.10400642 C34.9092919,4.5695468 34.0936261,3.35156948 33.0420238,2.45007446 C31.9904215,1.54857944 30.736588,0.925205216 29.2805233,0.579951803 C27.8244585,0.234698389 26.2200909,0.0620716822 24.4674205,0.0620716822 L24.4674205,0.0620716822 L1.93886363,0.0620716822 C0.698512208,0.0620716822 0.0783364962,0.944385961 0.0783364962,2.70901452 L0.0783364962,2.70901452 L0.0783364962,39.0757074 C0.0783364962,40.8786975 0.698512208,41.7801925 1.93886363,41.7801925 L1.93886363,41.7801925 L24.7909904,41.7801925 Z M23.8131881,17.7606684 L7.65991483,17.7606684 L7.65991483,6.38299908 L23.9828654,6.38299908 C25.0461761,6.38299908 25.9171859,6.48781848 26.5958949,6.69745727 C27.2746038,6.90709607 27.8006033,7.24061234 28.1738932,7.69800608 C28.5471831,8.15539982 28.801699,8.74620007 28.9374408,9.47040683 C29.0731826,10.1946136 29.1410535,11.0522269 29.1410535,12.0432466 C29.1410535,13.2629633 29.0562148,14.244454 28.8865376,14.9877188 C28.7168604,15.7309837 28.4227531,16.3027258 28.0042159,16.7029454 C27.5856788,17.1031649 27.0370557,17.3795069 26.3583467,17.5319715 C25.6796378,17.6844361 24.8312516,17.7606684 23.8131881,17.7606684 L23.8131881,17.7606684 Z M24.0489782,35.4592651 L7.65991483,35.4592651 L7.65991483,24.0815958 L23.5768653,24.0815958 C24.7459068,24.0815958 25.6957531,24.1853722 26.4264041,24.392925 C27.157055,24.6004779 27.7247146,24.949544 28.1293829,25.4401235 C28.5340511,25.9307029 28.8038299,26.5533614 28.9387193,27.308099 C29.0736088,28.0628366 29.1410535,28.9873902 29.1410535,30.0817597 C29.1410535,31.0251817 29.0848495,31.8365246 28.9724417,32.5157885 C28.8600339,33.1950523 28.6239774,33.7516713 28.2642723,34.1856454 C27.9045672,34.6196195 27.3874911,34.940383 26.7130441,35.1479358 C26.038597,35.3554887 25.1505751,35.4592651 24.0489782,35.4592651 L24.0489782,35.4592651 Z" id="B" fill="#FFFFFF"></path>
                    <path d="M46.6944161,6.51761074 C48.0431545,6.51761074 49.0145673,6.26755661 49.6086545,5.76744837 C50.2027417,5.26734012 50.4997852,4.48383719 50.4997852,3.4169396 C50.4997852,2.350042 50.2027417,1.56653908 49.6086545,1.06643083 C49.0145673,0.566322581 48.0431545,0.316268456 46.6944161,0.316268456 C45.3456777,0.316268456 44.3742649,0.566322581 43.7801777,1.06643083 C43.1860906,1.56653908 42.889047,2.350042 42.889047,3.4169396 C42.889047,4.48383719 43.1860906,5.26734012 43.7801777,5.76744837 C44.3742649,6.26755661 45.3456777,6.51761074 46.6944161,6.51761074 Z" id="Path" fill="#FBBB02"></path>
                    <path d="M78.7889575,14.4302663 C79.788023,14.4302663 80.5075881,14.2484088 80.9476526,13.8846937 C81.3877172,13.5209786 81.6077495,12.9511583 81.6077495,12.1752327 C81.6077495,11.3993072 81.3877172,10.8294869 80.9476526,10.4657718 C80.5075881,10.1020567 79.788023,9.92019919 78.7889575,9.92019919 C77.789892,9.92019919 77.070327,10.1020567 76.6302624,10.4657718 C76.1901979,10.8294869 75.9701656,11.3993072 75.9701656,12.1752327 C75.9701656,12.9511583 76.1901979,13.5209786 76.6302624,13.8846937 C77.070327,14.2484088 77.789892,14.4302663 78.7889575,14.4302663 Z" id="Path" fill="#FBBB02" transform="translate(78.788958, 12.175233) rotate(-270.000000) translate(-78.788958, -12.175233) "></path>
                    <path d="M88.3728502,41.2087898 C89.3719157,41.2087898 90.0914807,41.0269323 90.5315453,40.6632172 C90.9716098,40.2995021 91.1916421,39.7296818 91.1916421,38.9537562 C91.1916421,38.1778307 90.9716098,37.6080104 90.5315453,37.2442953 C90.0914807,36.8805802 89.3719157,36.6987227 88.3728502,36.6987227 C87.3737847,36.6987227 86.6542196,36.8805802 86.2141551,37.2442953 C85.7740905,37.6080104 85.5540582,38.1778307 85.5540582,38.9537562 C85.5540582,39.7296818 85.7740905,40.2995021 86.2141551,40.6632172 C86.6542196,41.0269323 87.3737847,41.2087898 88.3728502,41.2087898 Z" id="Path" fill="#FBBB02" transform="translate(88.372850, 38.953756) rotate(-270.000000) translate(-88.372850, -38.953756) "></path>
                </g>
            </g>
        </g>
    </g>
</svg>