<svg width="14" height="14" viewBox="0 0 14 14" fill="none" xmlns="http://www.w3.org/2000/svg">
<path fill-rule="evenodd" clip-rule="evenodd" d="M9.03248 8.50047H9.62498L12.805 11.6955C13.1125 12.003 13.1125 12.5055 12.805 12.813C12.4975 13.1205 11.995 13.1205 11.6875 12.813L8.49998 9.62547V9.03297L8.29748 8.82297C7.24748 9.72297 5.81498 10.188 4.29248 9.93297C2.20748 9.58047 0.542481 7.84047 0.287481 5.74047C-0.102519 2.56797 2.56748 -0.102031 5.73998 0.287969C7.83998 0.542969 9.57998 2.20797 9.93248 4.29297C10.1875 5.81547 9.72248 7.24797 8.82248 8.29797L9.03248 8.50047ZM1.74998 5.12547C1.74998 6.99297 3.25748 8.50047 5.12498 8.50047C6.99248 8.50047 8.49998 6.99297 8.49998 5.12547C8.49998 3.25797 6.99248 1.75047 5.12498 1.75047C3.25748 1.75047 1.74998 3.25797 1.74998 5.12547Z" fill="#093C5D"/>
</svg>
