<svg width="9" height="8" viewBox="0 0 9 8" fill="none" xmlns="http://www.w3.org/2000/svg">
<path opacity="0.8" fill-rule="evenodd" clip-rule="evenodd" d="M8.02534 8C8.74973 8 9.20129 7.21446 8.8391 6.58886L5.29713 0.469205C4.93494 -0.156402 4.03181 -0.156402 3.66961 0.469205L0.127648 6.58886C-0.234545 7.21446 0.21702 8 0.941406 8H8.02534ZM4.48337 4.70733C4.22466 4.70733 4.01299 4.49566 4.01299 4.23695V3.29619C4.01299 3.03748 4.22466 2.82581 4.48337 2.82581C4.74208 2.82581 4.95375 3.03748 4.95375 3.29619V4.23695C4.95375 4.49566 4.74208 4.70733 4.48337 4.70733ZM4.01299 5.6481V6.58886H4.95375V5.6481H4.01299Z" fill="#D31313"/>
</svg>
