<?xml version="1.0" encoding="UTF-8"?>
<svg width="24px" height="24px" viewBox="0 0 24 24" version="1.1" xmlns="http://www.w3.org/2000/svg" xmlns:xlink="http://www.w3.org/1999/xlink">
    <title>add_road_black_24dp</title>
    <g id="Admin-Bits" stroke="none" stroke-width="1" fill="none" fill-rule="evenodd">
        <g id="nomina" transform="translate(-751.000000, -495.000000)">
            <g id="Group-10" transform="translate(270.000000, 155.000000)">
                <g id="Group-3" transform="translate(345.500000, 187.000000)">
                    <g id="Group-3-Copy-2" transform="translate(121.500000, 145.000000)">
                        <g id="add_road_black_24dp" transform="translate(14.000000, 8.000000)">
                            <g id="Group">
                                <rect id="Rectangle" x="0" y="0" width="24" height="24"></rect>
                                <rect id="Rectangle" x="0" y="0" width="24" height="24"></rect>
                            </g>
                            <g id="Group" transform="translate(6.500000, 0.000000)" fill="#093C5D" fill-rule="nonzero">
                                <path d="M13.5,3 L13.5,1 C13.5,0.45 13.05,0 12.5,0 L12.5,0 C11.95,0 11.5,0.45 11.5,1 L11.5,3 L9.5,3 C8.95,3 8.5,3.45 8.5,4 L8.5,4 C8.5,4.55 8.95,5 9.5,5 L11.5,5 L11.5,7 C11.5,7.55 11.95,8 12.5,8 L12.5,8 C13.05,8 13.5,7.55 13.5,7 L13.5,5 L15.5,5 C16.05,5 16.5,4.55 16.5,4 L16.5,4 C16.5,3.45 16.05,3 15.5,3 L13.5,3 Z" id="Path"></path>
                                <g id="attach_money_black_24dp" transform="translate(0.000000, 4.000000)">
                                    <path d="M5.3,7.9 C3.03,7.31 2.3,6.7 2.3,5.75 C2.3,4.66 3.31,3.9 5,3.9 C6.42,3.9 7.13,4.44 7.39,5.3 C7.51,5.7 7.84,6 8.26,6 L8.56,6 C9.22,6 9.69,5.35 9.46,4.73 C9.04,3.55 8.06,2.57 6.5,2.19 L6.5,1.5 C6.5,0.67 5.83,0 5,0 C4.17,0 3.5,0.67 3.5,1.5 L3.5,2.16 C1.56,2.58 0,3.84 0,5.77 C0,8.08 1.91,9.23 4.7,9.9 C7.2,10.5 7.7,11.38 7.7,12.31 C7.7,13 7.21,14.1 5,14.1 C3.35,14.1 2.5,13.51 2.17,12.67 C2.02,12.28 1.68,12 1.27,12 L0.99,12 C0.32,12 -0.15,12.68 0.1,13.3 C0.67,14.69 2,15.51 3.5,15.83 L3.5,16.5 C3.5,17.33 4.17,18 5,18 C5.83,18 6.5,17.33 6.5,16.5 L6.5,15.85 C8.45,15.48 10,14.35 10,12.3 C10,9.46 7.57,8.49 5.3,7.9 Z" id="Path"></path>
                                </g>
                            </g>
                        </g>
                    </g>
                </g>
            </g>
        </g>
    </g>
</svg>