<svg width="16" height="13" viewBox="0 0 16 13" fill="none" xmlns="http://www.w3.org/2000/svg">
<path fill-rule="evenodd" clip-rule="evenodd" d="M9 3.06287C9 1.40537 7.6575 0.0628662 6 0.0628662C4.3425 0.0628662 3 1.40537 3 3.06287C3 4.72037 4.3425 6.06287 6 6.06287C7.6575 6.06287 9 4.72037 9 3.06287ZM0 10.5629V11.3129C0 11.7254 0.3375 12.0629 0.75 12.0629H11.25C11.6625 12.0629 12 11.7254 12 11.3129V10.5629C12 8.56787 8.0025 7.56287 6 7.56287C3.9975 7.56287 0 8.56787 0 10.5629ZM15 4.56287H12C11.5875 4.56287 11.25 4.90037 11.25 5.31287C11.25 5.72537 11.5875 6.06287 12 6.06287H15C15.4125 6.06287 15.75 5.72537 15.75 5.31287C15.75 4.90037 15.4125 4.56287 15 4.56287Z" fill="#D31313"/>
</svg>
