<svg width="18" height="18" viewBox="0 0 18 18" xmlns="http://www.w3.org/2000/svg">
    <g fill="none" fill-rule="evenodd">
        <path d="M0 0h18v18H0z"/>
        <path d="M9 1.5C4.86 1.5 1.5 4.86 1.5 9c0 4.14 3.36 7.5 7.5 7.5 4.14 0 7.5-3.36 7.5-7.5 0-4.14-3.36-7.5-7.5-7.5zM5.25 6c0-.412.338-.75.75-.75h3.75c.412 0 .75.338.75.75s-.338.75-.75.75H6A.752.752 0 0 1 5.25 6zm2.25 4.5c0 .412-.338.75-.75.75H6a.752.752 0 0 1-.75-.75c0-.412.338-.75.75-.75h.75c.412 0 .75.338.75.75zM6 9a.752.752 0 0 1-.75-.75c0-.412.338-.75.75-.75h3.75c.412 0 .75.338.75.75s-.338.75-.75.75H6zm7.5 2.25h-.75V12c0 .412-.338.75-.75.75a.752.752 0 0 1-.75-.75v-.75h-.75a.752.752 0 0 1-.75-.75c0-.412.338-.75.75-.75h.75V9c0-.412.338-.75.75-.75s.75.338.75.75v.75h.75c.412 0 .75.338.75.75s-.338.75-.75.75z" fill="#093C5D" fill-rule="nonzero"/>
    </g>
</svg>
