<?xml version="1.0" encoding="UTF-8"?>
<svg width="24px" height="24px" viewBox="0 0 24 24" version="1.1" xmlns="http://www.w3.org/2000/svg" xmlns:xlink="http://www.w3.org/1999/xlink">
    <title>icono-agregar-nuevo</title>
    <g id="Admin-Bits" stroke="none" stroke-width="1" fill="none" fill-rule="evenodd">
        <g id="7-agregar-nuevo-ingreso" transform="translate(-979.000000, -789.000000)">
            <g id="Group-12" transform="translate(270.000000, 229.000000)">
                <g id="Group-3-Copy-2" transform="translate(538.000000, 549.000000)">
                    <g id="icono-agregar-nuevo" transform="translate(171.000000, 11.000000)">
                        <rect id="Rectangle" x="0" y="0" width="24" height="24"></rect>
                        <path d="M15.39,14.56 C13.71,13.7 11.53,13 9,13 C6.47,13 4.29,13.7 2.61,14.56 C1.61,15.07 1,16.1 1,17.22 L1,20 L17,20 L17,17.22 C17,16.1 16.39,15.07 15.39,14.56 Z M9,12 C11.21,12 13,10.21 13,8 C13,5.79 11.21,4 9,4 C6.79,4 5,5.79 5,8 C5,10.21 6.79,12 9,12 Z M20,9 L20,7 C20,6.45 19.55,6 19,6 L19,6 C18.45,6 18,6.45 18,7 L18,9 L16,9 C15.45,9 15,9.45 15,10 L15,10 C15,10.55 15.45,11 16,11 L18,11 L18,13 C18,13.55 18.45,14 19,14 L19,14 C19.55,14 20,13.55 20,13 L20,11 L22,11 C22.55,11 23,10.55 23,10 L23,10 C23,9.45 22.55,9 22,9 L20,9 Z" id="Shape" fill="#093C5D" fill-rule="nonzero"></path>
                    </g>
                </g>
            </g>
        </g>
    </g>
</svg>