<?xml version="1.0" encoding="UTF-8"?>
<svg width="24px" height="24px" viewBox="0 0 24 24" version="1.1" xmlns="http://www.w3.org/2000/svg" xmlns:xlink="http://www.w3.org/1999/xlink">
    <title>btn-notificaciones</title>
    <g id="Admin-Bits" stroke="none" stroke-width="1" fill="none" fill-rule="evenodd">
        <g id="notificaciones" transform="translate(-1010.000000, -194.000000)">
            <g id="colaboradores" transform="translate(270.000000, 168.000000)">
                <g id="search" transform="translate(559.000000, 18.000000)">
                    <g id="btn-notificaciones" transform="translate(181.000000, 8.000000)">
                        <rect id="Rectangle" x="0" y="0" width="24" height="24"></rect>
                        <path d="M10,20 L14,20 C14,21.1 13.1,22 12,22 C10.9,22 10,21.1 10,20 Z M14,9 C14,11.61 15.67,13.83 18,14.66 L18,17 L19,17 C19.55,17 20,17.45 20,18 L20,18 C20,18.55 19.55,19 19,19 L5,19 C4.45,19 4,18.55 4,18 L4,18 C4,17.45 4.45,17 5,17 L6,17 L6,10 C6,7.21 7.91,4.86 10.5,4.2 L10.5,3.5 C10.5,2.67 11.17,2 12,2 C12.83,2 13.5,2.67 13.5,3.5 L13.5,4.2 C14.21,4.38 14.86,4.69 15.45,5.1 C14.54,6.14 14,7.51 14,9 Z M23,8 L21,8 L21,6 C21,5.45 20.55,5 20,5 L20,5 C19.45,5 19,5.45 19,6 L19,8 L17,8 C16.45,8 16,8.45 16,9 L16,9 C16,9.55 16.45,10 17,10 L19,10 L19,12 C19,12.55 19.45,13 20,13 L20,13 C20.55,13 21,12.55 21,12 L21,10 L23,10 C23.55,10 24,9.55 24,9 L24,9 C24,8.45 23.55,8 23,8 Z" id="Shape" fill="#093C5D" fill-rule="nonzero"></path>
                    </g>
                </g>
            </g>
        </g>
    </g>
</svg>